%TF.GenerationSoftware,KiCad,Pcbnew,8.0.4-8.0.4-0~ubuntu22.04.1*%
%TF.CreationDate,2024-07-31T14:37:32+09:00*%
%TF.ProjectId,Q960,51393630-2e6b-4696-9361-645f70636258,1.00*%
%TF.SameCoordinates,Original*%
%TF.FileFunction,Legend,Top*%
%TF.FilePolarity,Positive*%
%FSLAX46Y46*%
G04 Gerber Fmt 4.6, Leading zero omitted, Abs format (unit mm)*
G04 Created by KiCad (PCBNEW 8.0.4-8.0.4-0~ubuntu22.04.1) date 2024-07-31 14:37:32*
%MOMM*%
%LPD*%
G01*
G04 APERTURE LIST*
%ADD10C,0.300000*%
%ADD11C,0.187500*%
%ADD12C,0.150000*%
%ADD13C,0.101600*%
%ADD14C,0.080000*%
%ADD15C,0.120000*%
%ADD16C,0.127000*%
%ADD17C,0.066040*%
%ADD18C,0.254000*%
G04 APERTURE END LIST*
D10*
X143777082Y-92788828D02*
X143662796Y-92731685D01*
X143662796Y-92731685D02*
X143548510Y-92617400D01*
X143548510Y-92617400D02*
X143377082Y-92445971D01*
X143377082Y-92445971D02*
X143262796Y-92388828D01*
X143262796Y-92388828D02*
X143148510Y-92388828D01*
X143205653Y-92674542D02*
X143091368Y-92617400D01*
X143091368Y-92617400D02*
X142977082Y-92503114D01*
X142977082Y-92503114D02*
X142919939Y-92274542D01*
X142919939Y-92274542D02*
X142919939Y-91874542D01*
X142919939Y-91874542D02*
X142977082Y-91645971D01*
X142977082Y-91645971D02*
X143091368Y-91531685D01*
X143091368Y-91531685D02*
X143205653Y-91474542D01*
X143205653Y-91474542D02*
X143434225Y-91474542D01*
X143434225Y-91474542D02*
X143548510Y-91531685D01*
X143548510Y-91531685D02*
X143662796Y-91645971D01*
X143662796Y-91645971D02*
X143719939Y-91874542D01*
X143719939Y-91874542D02*
X143719939Y-92274542D01*
X143719939Y-92274542D02*
X143662796Y-92503114D01*
X143662796Y-92503114D02*
X143548510Y-92617400D01*
X143548510Y-92617400D02*
X143434225Y-92674542D01*
X143434225Y-92674542D02*
X143205653Y-92674542D01*
X144291368Y-92674542D02*
X144519939Y-92674542D01*
X144519939Y-92674542D02*
X144634225Y-92617400D01*
X144634225Y-92617400D02*
X144691368Y-92560257D01*
X144691368Y-92560257D02*
X144805653Y-92388828D01*
X144805653Y-92388828D02*
X144862796Y-92160257D01*
X144862796Y-92160257D02*
X144862796Y-91703114D01*
X144862796Y-91703114D02*
X144805653Y-91588828D01*
X144805653Y-91588828D02*
X144748511Y-91531685D01*
X144748511Y-91531685D02*
X144634225Y-91474542D01*
X144634225Y-91474542D02*
X144405653Y-91474542D01*
X144405653Y-91474542D02*
X144291368Y-91531685D01*
X144291368Y-91531685D02*
X144234225Y-91588828D01*
X144234225Y-91588828D02*
X144177082Y-91703114D01*
X144177082Y-91703114D02*
X144177082Y-91988828D01*
X144177082Y-91988828D02*
X144234225Y-92103114D01*
X144234225Y-92103114D02*
X144291368Y-92160257D01*
X144291368Y-92160257D02*
X144405653Y-92217400D01*
X144405653Y-92217400D02*
X144634225Y-92217400D01*
X144634225Y-92217400D02*
X144748511Y-92160257D01*
X144748511Y-92160257D02*
X144805653Y-92103114D01*
X144805653Y-92103114D02*
X144862796Y-91988828D01*
X145891368Y-91474542D02*
X145662796Y-91474542D01*
X145662796Y-91474542D02*
X145548510Y-91531685D01*
X145548510Y-91531685D02*
X145491368Y-91588828D01*
X145491368Y-91588828D02*
X145377082Y-91760257D01*
X145377082Y-91760257D02*
X145319939Y-91988828D01*
X145319939Y-91988828D02*
X145319939Y-92445971D01*
X145319939Y-92445971D02*
X145377082Y-92560257D01*
X145377082Y-92560257D02*
X145434225Y-92617400D01*
X145434225Y-92617400D02*
X145548510Y-92674542D01*
X145548510Y-92674542D02*
X145777082Y-92674542D01*
X145777082Y-92674542D02*
X145891368Y-92617400D01*
X145891368Y-92617400D02*
X145948510Y-92560257D01*
X145948510Y-92560257D02*
X146005653Y-92445971D01*
X146005653Y-92445971D02*
X146005653Y-92160257D01*
X146005653Y-92160257D02*
X145948510Y-92045971D01*
X145948510Y-92045971D02*
X145891368Y-91988828D01*
X145891368Y-91988828D02*
X145777082Y-91931685D01*
X145777082Y-91931685D02*
X145548510Y-91931685D01*
X145548510Y-91931685D02*
X145434225Y-91988828D01*
X145434225Y-91988828D02*
X145377082Y-92045971D01*
X145377082Y-92045971D02*
X145319939Y-92160257D01*
X146748510Y-91474542D02*
X146862796Y-91474542D01*
X146862796Y-91474542D02*
X146977082Y-91531685D01*
X146977082Y-91531685D02*
X147034225Y-91588828D01*
X147034225Y-91588828D02*
X147091367Y-91703114D01*
X147091367Y-91703114D02*
X147148510Y-91931685D01*
X147148510Y-91931685D02*
X147148510Y-92217400D01*
X147148510Y-92217400D02*
X147091367Y-92445971D01*
X147091367Y-92445971D02*
X147034225Y-92560257D01*
X147034225Y-92560257D02*
X146977082Y-92617400D01*
X146977082Y-92617400D02*
X146862796Y-92674542D01*
X146862796Y-92674542D02*
X146748510Y-92674542D01*
X146748510Y-92674542D02*
X146634225Y-92617400D01*
X146634225Y-92617400D02*
X146577082Y-92560257D01*
X146577082Y-92560257D02*
X146519939Y-92445971D01*
X146519939Y-92445971D02*
X146462796Y-92217400D01*
X146462796Y-92217400D02*
X146462796Y-91931685D01*
X146462796Y-91931685D02*
X146519939Y-91703114D01*
X146519939Y-91703114D02*
X146577082Y-91588828D01*
X146577082Y-91588828D02*
X146634225Y-91531685D01*
X146634225Y-91531685D02*
X146748510Y-91474542D01*
X148577082Y-92674542D02*
X148577082Y-91474542D01*
X149148511Y-92674542D02*
X149148511Y-91874542D01*
X149148511Y-92103114D02*
X149205654Y-91988828D01*
X149205654Y-91988828D02*
X149262797Y-91931685D01*
X149262797Y-91931685D02*
X149377082Y-91874542D01*
X149377082Y-91874542D02*
X149491368Y-91874542D01*
X150291368Y-92045971D02*
X150462796Y-92103114D01*
X150462796Y-92103114D02*
X150519939Y-92160257D01*
X150519939Y-92160257D02*
X150577082Y-92274542D01*
X150577082Y-92274542D02*
X150577082Y-92445971D01*
X150577082Y-92445971D02*
X150519939Y-92560257D01*
X150519939Y-92560257D02*
X150462796Y-92617400D01*
X150462796Y-92617400D02*
X150348511Y-92674542D01*
X150348511Y-92674542D02*
X149891368Y-92674542D01*
X149891368Y-92674542D02*
X149891368Y-91474542D01*
X149891368Y-91474542D02*
X150291368Y-91474542D01*
X150291368Y-91474542D02*
X150405654Y-91531685D01*
X150405654Y-91531685D02*
X150462796Y-91588828D01*
X150462796Y-91588828D02*
X150519939Y-91703114D01*
X150519939Y-91703114D02*
X150519939Y-91817400D01*
X150519939Y-91817400D02*
X150462796Y-91931685D01*
X150462796Y-91931685D02*
X150405654Y-91988828D01*
X150405654Y-91988828D02*
X150291368Y-92045971D01*
X150291368Y-92045971D02*
X149891368Y-92045971D01*
X151548511Y-92617400D02*
X151434225Y-92674542D01*
X151434225Y-92674542D02*
X151205654Y-92674542D01*
X151205654Y-92674542D02*
X151091368Y-92617400D01*
X151091368Y-92617400D02*
X151034225Y-92503114D01*
X151034225Y-92503114D02*
X151034225Y-92045971D01*
X151034225Y-92045971D02*
X151091368Y-91931685D01*
X151091368Y-91931685D02*
X151205654Y-91874542D01*
X151205654Y-91874542D02*
X151434225Y-91874542D01*
X151434225Y-91874542D02*
X151548511Y-91931685D01*
X151548511Y-91931685D02*
X151605654Y-92045971D01*
X151605654Y-92045971D02*
X151605654Y-92160257D01*
X151605654Y-92160257D02*
X151034225Y-92274542D01*
X152634225Y-92674542D02*
X152634225Y-92045971D01*
X152634225Y-92045971D02*
X152577082Y-91931685D01*
X152577082Y-91931685D02*
X152462796Y-91874542D01*
X152462796Y-91874542D02*
X152234225Y-91874542D01*
X152234225Y-91874542D02*
X152119939Y-91931685D01*
X152634225Y-92617400D02*
X152519939Y-92674542D01*
X152519939Y-92674542D02*
X152234225Y-92674542D01*
X152234225Y-92674542D02*
X152119939Y-92617400D01*
X152119939Y-92617400D02*
X152062796Y-92503114D01*
X152062796Y-92503114D02*
X152062796Y-92388828D01*
X152062796Y-92388828D02*
X152119939Y-92274542D01*
X152119939Y-92274542D02*
X152234225Y-92217400D01*
X152234225Y-92217400D02*
X152519939Y-92217400D01*
X152519939Y-92217400D02*
X152634225Y-92160257D01*
X153719939Y-92617400D02*
X153605653Y-92674542D01*
X153605653Y-92674542D02*
X153377081Y-92674542D01*
X153377081Y-92674542D02*
X153262796Y-92617400D01*
X153262796Y-92617400D02*
X153205653Y-92560257D01*
X153205653Y-92560257D02*
X153148510Y-92445971D01*
X153148510Y-92445971D02*
X153148510Y-92103114D01*
X153148510Y-92103114D02*
X153205653Y-91988828D01*
X153205653Y-91988828D02*
X153262796Y-91931685D01*
X153262796Y-91931685D02*
X153377081Y-91874542D01*
X153377081Y-91874542D02*
X153605653Y-91874542D01*
X153605653Y-91874542D02*
X153719939Y-91931685D01*
X154405652Y-92674542D02*
X154291367Y-92617400D01*
X154291367Y-92617400D02*
X154234224Y-92560257D01*
X154234224Y-92560257D02*
X154177081Y-92445971D01*
X154177081Y-92445971D02*
X154177081Y-92103114D01*
X154177081Y-92103114D02*
X154234224Y-91988828D01*
X154234224Y-91988828D02*
X154291367Y-91931685D01*
X154291367Y-91931685D02*
X154405652Y-91874542D01*
X154405652Y-91874542D02*
X154577081Y-91874542D01*
X154577081Y-91874542D02*
X154691367Y-91931685D01*
X154691367Y-91931685D02*
X154748510Y-91988828D01*
X154748510Y-91988828D02*
X154805652Y-92103114D01*
X154805652Y-92103114D02*
X154805652Y-92445971D01*
X154805652Y-92445971D02*
X154748510Y-92560257D01*
X154748510Y-92560257D02*
X154691367Y-92617400D01*
X154691367Y-92617400D02*
X154577081Y-92674542D01*
X154577081Y-92674542D02*
X154405652Y-92674542D01*
X155319938Y-91874542D02*
X155319938Y-92674542D01*
X155319938Y-91988828D02*
X155377081Y-91931685D01*
X155377081Y-91931685D02*
X155491366Y-91874542D01*
X155491366Y-91874542D02*
X155662795Y-91874542D01*
X155662795Y-91874542D02*
X155777081Y-91931685D01*
X155777081Y-91931685D02*
X155834224Y-92045971D01*
X155834224Y-92045971D02*
X155834224Y-92674542D01*
X157148509Y-91474542D02*
X157834224Y-91474542D01*
X157491366Y-92674542D02*
X157491366Y-91474542D01*
X158234224Y-92674542D02*
X158234224Y-91874542D01*
X158234224Y-92103114D02*
X158291367Y-91988828D01*
X158291367Y-91988828D02*
X158348510Y-91931685D01*
X158348510Y-91931685D02*
X158462795Y-91874542D01*
X158462795Y-91874542D02*
X158577081Y-91874542D01*
X159491367Y-92674542D02*
X159491367Y-92045971D01*
X159491367Y-92045971D02*
X159434224Y-91931685D01*
X159434224Y-91931685D02*
X159319938Y-91874542D01*
X159319938Y-91874542D02*
X159091367Y-91874542D01*
X159091367Y-91874542D02*
X158977081Y-91931685D01*
X159491367Y-92617400D02*
X159377081Y-92674542D01*
X159377081Y-92674542D02*
X159091367Y-92674542D01*
X159091367Y-92674542D02*
X158977081Y-92617400D01*
X158977081Y-92617400D02*
X158919938Y-92503114D01*
X158919938Y-92503114D02*
X158919938Y-92388828D01*
X158919938Y-92388828D02*
X158977081Y-92274542D01*
X158977081Y-92274542D02*
X159091367Y-92217400D01*
X159091367Y-92217400D02*
X159377081Y-92217400D01*
X159377081Y-92217400D02*
X159491367Y-92160257D01*
X160062795Y-91874542D02*
X160062795Y-92674542D01*
X160062795Y-91988828D02*
X160119938Y-91931685D01*
X160119938Y-91931685D02*
X160234223Y-91874542D01*
X160234223Y-91874542D02*
X160405652Y-91874542D01*
X160405652Y-91874542D02*
X160519938Y-91931685D01*
X160519938Y-91931685D02*
X160577081Y-92045971D01*
X160577081Y-92045971D02*
X160577081Y-92674542D01*
X161091366Y-92617400D02*
X161205652Y-92674542D01*
X161205652Y-92674542D02*
X161434223Y-92674542D01*
X161434223Y-92674542D02*
X161548509Y-92617400D01*
X161548509Y-92617400D02*
X161605652Y-92503114D01*
X161605652Y-92503114D02*
X161605652Y-92445971D01*
X161605652Y-92445971D02*
X161548509Y-92331685D01*
X161548509Y-92331685D02*
X161434223Y-92274542D01*
X161434223Y-92274542D02*
X161262795Y-92274542D01*
X161262795Y-92274542D02*
X161148509Y-92217400D01*
X161148509Y-92217400D02*
X161091366Y-92103114D01*
X161091366Y-92103114D02*
X161091366Y-92045971D01*
X161091366Y-92045971D02*
X161148509Y-91931685D01*
X161148509Y-91931685D02*
X161262795Y-91874542D01*
X161262795Y-91874542D02*
X161434223Y-91874542D01*
X161434223Y-91874542D02*
X161548509Y-91931685D01*
X162119938Y-92674542D02*
X162119938Y-91874542D01*
X162119938Y-91988828D02*
X162177081Y-91931685D01*
X162177081Y-91931685D02*
X162291366Y-91874542D01*
X162291366Y-91874542D02*
X162462795Y-91874542D01*
X162462795Y-91874542D02*
X162577081Y-91931685D01*
X162577081Y-91931685D02*
X162634224Y-92045971D01*
X162634224Y-92045971D02*
X162634224Y-92674542D01*
X162634224Y-92045971D02*
X162691366Y-91931685D01*
X162691366Y-91931685D02*
X162805652Y-91874542D01*
X162805652Y-91874542D02*
X162977081Y-91874542D01*
X162977081Y-91874542D02*
X163091366Y-91931685D01*
X163091366Y-91931685D02*
X163148509Y-92045971D01*
X163148509Y-92045971D02*
X163148509Y-92674542D01*
X163719938Y-92674542D02*
X163719938Y-91874542D01*
X163719938Y-91474542D02*
X163662795Y-91531685D01*
X163662795Y-91531685D02*
X163719938Y-91588828D01*
X163719938Y-91588828D02*
X163777081Y-91531685D01*
X163777081Y-91531685D02*
X163719938Y-91474542D01*
X163719938Y-91474542D02*
X163719938Y-91588828D01*
X164119938Y-91874542D02*
X164577081Y-91874542D01*
X164291367Y-91474542D02*
X164291367Y-92503114D01*
X164291367Y-92503114D02*
X164348510Y-92617400D01*
X164348510Y-92617400D02*
X164462795Y-92674542D01*
X164462795Y-92674542D02*
X164577081Y-92674542D01*
X164805652Y-91874542D02*
X165262795Y-91874542D01*
X164977081Y-91474542D02*
X164977081Y-92503114D01*
X164977081Y-92503114D02*
X165034224Y-92617400D01*
X165034224Y-92617400D02*
X165148509Y-92674542D01*
X165148509Y-92674542D02*
X165262795Y-92674542D01*
X166119938Y-92617400D02*
X166005652Y-92674542D01*
X166005652Y-92674542D02*
X165777081Y-92674542D01*
X165777081Y-92674542D02*
X165662795Y-92617400D01*
X165662795Y-92617400D02*
X165605652Y-92503114D01*
X165605652Y-92503114D02*
X165605652Y-92045971D01*
X165605652Y-92045971D02*
X165662795Y-91931685D01*
X165662795Y-91931685D02*
X165777081Y-91874542D01*
X165777081Y-91874542D02*
X166005652Y-91874542D01*
X166005652Y-91874542D02*
X166119938Y-91931685D01*
X166119938Y-91931685D02*
X166177081Y-92045971D01*
X166177081Y-92045971D02*
X166177081Y-92160257D01*
X166177081Y-92160257D02*
X165605652Y-92274542D01*
X166691366Y-92674542D02*
X166691366Y-91874542D01*
X166691366Y-92103114D02*
X166748509Y-91988828D01*
X166748509Y-91988828D02*
X166805652Y-91931685D01*
X166805652Y-91931685D02*
X166919937Y-91874542D01*
X166919937Y-91874542D02*
X167034223Y-91874542D01*
X154304510Y-108449400D02*
X155447368Y-108449400D01*
X154875939Y-109020828D02*
X154875939Y-107877971D01*
D11*
X129258497Y-104327678D02*
X129258497Y-102827678D01*
X130115640Y-104327678D02*
X129472783Y-103470535D01*
X130115640Y-102827678D02*
X129258497Y-103684821D01*
X129314069Y-111392107D02*
X130028355Y-111392107D01*
X129171212Y-111820678D02*
X129671212Y-110320678D01*
X129671212Y-110320678D02*
X130171212Y-111820678D01*
D10*
X157029653Y-93379542D02*
X157429653Y-94579542D01*
X157429653Y-94579542D02*
X157829653Y-93379542D01*
X158686796Y-94522400D02*
X158572510Y-94579542D01*
X158572510Y-94579542D02*
X158343939Y-94579542D01*
X158343939Y-94579542D02*
X158229653Y-94522400D01*
X158229653Y-94522400D02*
X158172510Y-94408114D01*
X158172510Y-94408114D02*
X158172510Y-93950971D01*
X158172510Y-93950971D02*
X158229653Y-93836685D01*
X158229653Y-93836685D02*
X158343939Y-93779542D01*
X158343939Y-93779542D02*
X158572510Y-93779542D01*
X158572510Y-93779542D02*
X158686796Y-93836685D01*
X158686796Y-93836685D02*
X158743939Y-93950971D01*
X158743939Y-93950971D02*
X158743939Y-94065257D01*
X158743939Y-94065257D02*
X158172510Y-94179542D01*
X159258224Y-94579542D02*
X159258224Y-93779542D01*
X159258224Y-94008114D02*
X159315367Y-93893828D01*
X159315367Y-93893828D02*
X159372510Y-93836685D01*
X159372510Y-93836685D02*
X159486795Y-93779542D01*
X159486795Y-93779542D02*
X159601081Y-93779542D01*
X161543938Y-94579542D02*
X160858224Y-94579542D01*
X161201081Y-94579542D02*
X161201081Y-93379542D01*
X161201081Y-93379542D02*
X161086795Y-93550971D01*
X161086795Y-93550971D02*
X160972510Y-93665257D01*
X160972510Y-93665257D02*
X160858224Y-93722400D01*
X162058224Y-94465257D02*
X162115367Y-94522400D01*
X162115367Y-94522400D02*
X162058224Y-94579542D01*
X162058224Y-94579542D02*
X162001081Y-94522400D01*
X162001081Y-94522400D02*
X162058224Y-94465257D01*
X162058224Y-94465257D02*
X162058224Y-94579542D01*
X162858224Y-93379542D02*
X162972510Y-93379542D01*
X162972510Y-93379542D02*
X163086796Y-93436685D01*
X163086796Y-93436685D02*
X163143939Y-93493828D01*
X163143939Y-93493828D02*
X163201081Y-93608114D01*
X163201081Y-93608114D02*
X163258224Y-93836685D01*
X163258224Y-93836685D02*
X163258224Y-94122400D01*
X163258224Y-94122400D02*
X163201081Y-94350971D01*
X163201081Y-94350971D02*
X163143939Y-94465257D01*
X163143939Y-94465257D02*
X163086796Y-94522400D01*
X163086796Y-94522400D02*
X162972510Y-94579542D01*
X162972510Y-94579542D02*
X162858224Y-94579542D01*
X162858224Y-94579542D02*
X162743939Y-94522400D01*
X162743939Y-94522400D02*
X162686796Y-94465257D01*
X162686796Y-94465257D02*
X162629653Y-94350971D01*
X162629653Y-94350971D02*
X162572510Y-94122400D01*
X162572510Y-94122400D02*
X162572510Y-93836685D01*
X162572510Y-93836685D02*
X162629653Y-93608114D01*
X162629653Y-93608114D02*
X162686796Y-93493828D01*
X162686796Y-93493828D02*
X162743939Y-93436685D01*
X162743939Y-93436685D02*
X162858224Y-93379542D01*
X164001081Y-93379542D02*
X164115367Y-93379542D01*
X164115367Y-93379542D02*
X164229653Y-93436685D01*
X164229653Y-93436685D02*
X164286796Y-93493828D01*
X164286796Y-93493828D02*
X164343938Y-93608114D01*
X164343938Y-93608114D02*
X164401081Y-93836685D01*
X164401081Y-93836685D02*
X164401081Y-94122400D01*
X164401081Y-94122400D02*
X164343938Y-94350971D01*
X164343938Y-94350971D02*
X164286796Y-94465257D01*
X164286796Y-94465257D02*
X164229653Y-94522400D01*
X164229653Y-94522400D02*
X164115367Y-94579542D01*
X164115367Y-94579542D02*
X164001081Y-94579542D01*
X164001081Y-94579542D02*
X163886796Y-94522400D01*
X163886796Y-94522400D02*
X163829653Y-94465257D01*
X163829653Y-94465257D02*
X163772510Y-94350971D01*
X163772510Y-94350971D02*
X163715367Y-94122400D01*
X163715367Y-94122400D02*
X163715367Y-93836685D01*
X163715367Y-93836685D02*
X163772510Y-93608114D01*
X163772510Y-93608114D02*
X163829653Y-93493828D01*
X163829653Y-93493828D02*
X163886796Y-93436685D01*
X163886796Y-93436685D02*
X164001081Y-93379542D01*
D12*
X138061339Y-115933860D02*
X138061339Y-116743383D01*
X138061339Y-116743383D02*
X138108958Y-116838621D01*
X138108958Y-116838621D02*
X138156577Y-116886241D01*
X138156577Y-116886241D02*
X138251815Y-116933860D01*
X138251815Y-116933860D02*
X138442291Y-116933860D01*
X138442291Y-116933860D02*
X138537529Y-116886241D01*
X138537529Y-116886241D02*
X138585148Y-116838621D01*
X138585148Y-116838621D02*
X138632767Y-116743383D01*
X138632767Y-116743383D02*
X138632767Y-115933860D01*
X139632767Y-116933860D02*
X139061339Y-116933860D01*
X139347053Y-116933860D02*
X139347053Y-115933860D01*
X139347053Y-115933860D02*
X139251815Y-116076717D01*
X139251815Y-116076717D02*
X139156577Y-116171955D01*
X139156577Y-116171955D02*
X139061339Y-116219574D01*
X140251815Y-115933860D02*
X140347053Y-115933860D01*
X140347053Y-115933860D02*
X140442291Y-115981479D01*
X140442291Y-115981479D02*
X140489910Y-116029098D01*
X140489910Y-116029098D02*
X140537529Y-116124336D01*
X140537529Y-116124336D02*
X140585148Y-116314812D01*
X140585148Y-116314812D02*
X140585148Y-116552907D01*
X140585148Y-116552907D02*
X140537529Y-116743383D01*
X140537529Y-116743383D02*
X140489910Y-116838621D01*
X140489910Y-116838621D02*
X140442291Y-116886241D01*
X140442291Y-116886241D02*
X140347053Y-116933860D01*
X140347053Y-116933860D02*
X140251815Y-116933860D01*
X140251815Y-116933860D02*
X140156577Y-116886241D01*
X140156577Y-116886241D02*
X140108958Y-116838621D01*
X140108958Y-116838621D02*
X140061339Y-116743383D01*
X140061339Y-116743383D02*
X140013720Y-116552907D01*
X140013720Y-116552907D02*
X140013720Y-116314812D01*
X140013720Y-116314812D02*
X140061339Y-116124336D01*
X140061339Y-116124336D02*
X140108958Y-116029098D01*
X140108958Y-116029098D02*
X140156577Y-115981479D01*
X140156577Y-115981479D02*
X140251815Y-115933860D01*
X140918482Y-115933860D02*
X141537529Y-115933860D01*
X141537529Y-115933860D02*
X141204196Y-116314812D01*
X141204196Y-116314812D02*
X141347053Y-116314812D01*
X141347053Y-116314812D02*
X141442291Y-116362431D01*
X141442291Y-116362431D02*
X141489910Y-116410050D01*
X141489910Y-116410050D02*
X141537529Y-116505288D01*
X141537529Y-116505288D02*
X141537529Y-116743383D01*
X141537529Y-116743383D02*
X141489910Y-116838621D01*
X141489910Y-116838621D02*
X141442291Y-116886241D01*
X141442291Y-116886241D02*
X141347053Y-116933860D01*
X141347053Y-116933860D02*
X141061339Y-116933860D01*
X141061339Y-116933860D02*
X140966101Y-116886241D01*
X140966101Y-116886241D02*
X140918482Y-116838621D01*
X151551286Y-103277200D02*
X151694143Y-103324819D01*
X151694143Y-103324819D02*
X151932238Y-103324819D01*
X151932238Y-103324819D02*
X152027476Y-103277200D01*
X152027476Y-103277200D02*
X152075095Y-103229580D01*
X152075095Y-103229580D02*
X152122714Y-103134342D01*
X152122714Y-103134342D02*
X152122714Y-103039104D01*
X152122714Y-103039104D02*
X152075095Y-102943866D01*
X152075095Y-102943866D02*
X152027476Y-102896247D01*
X152027476Y-102896247D02*
X151932238Y-102848628D01*
X151932238Y-102848628D02*
X151741762Y-102801009D01*
X151741762Y-102801009D02*
X151646524Y-102753390D01*
X151646524Y-102753390D02*
X151598905Y-102705771D01*
X151598905Y-102705771D02*
X151551286Y-102610533D01*
X151551286Y-102610533D02*
X151551286Y-102515295D01*
X151551286Y-102515295D02*
X151598905Y-102420057D01*
X151598905Y-102420057D02*
X151646524Y-102372438D01*
X151646524Y-102372438D02*
X151741762Y-102324819D01*
X151741762Y-102324819D02*
X151979857Y-102324819D01*
X151979857Y-102324819D02*
X152122714Y-102372438D01*
X152456048Y-102324819D02*
X152694143Y-103324819D01*
X152694143Y-103324819D02*
X152884619Y-102610533D01*
X152884619Y-102610533D02*
X153075095Y-103324819D01*
X153075095Y-103324819D02*
X153313191Y-102324819D01*
X154217952Y-103324819D02*
X153646524Y-103324819D01*
X153932238Y-103324819D02*
X153932238Y-102324819D01*
X153932238Y-102324819D02*
X153837000Y-102467676D01*
X153837000Y-102467676D02*
X153741762Y-102562914D01*
X153741762Y-102562914D02*
X153646524Y-102610533D01*
X154837000Y-102324819D02*
X154932238Y-102324819D01*
X154932238Y-102324819D02*
X155027476Y-102372438D01*
X155027476Y-102372438D02*
X155075095Y-102420057D01*
X155075095Y-102420057D02*
X155122714Y-102515295D01*
X155122714Y-102515295D02*
X155170333Y-102705771D01*
X155170333Y-102705771D02*
X155170333Y-102943866D01*
X155170333Y-102943866D02*
X155122714Y-103134342D01*
X155122714Y-103134342D02*
X155075095Y-103229580D01*
X155075095Y-103229580D02*
X155027476Y-103277200D01*
X155027476Y-103277200D02*
X154932238Y-103324819D01*
X154932238Y-103324819D02*
X154837000Y-103324819D01*
X154837000Y-103324819D02*
X154741762Y-103277200D01*
X154741762Y-103277200D02*
X154694143Y-103229580D01*
X154694143Y-103229580D02*
X154646524Y-103134342D01*
X154646524Y-103134342D02*
X154598905Y-102943866D01*
X154598905Y-102943866D02*
X154598905Y-102705771D01*
X154598905Y-102705771D02*
X154646524Y-102515295D01*
X154646524Y-102515295D02*
X154694143Y-102420057D01*
X154694143Y-102420057D02*
X154741762Y-102372438D01*
X154741762Y-102372438D02*
X154837000Y-102324819D01*
X156122714Y-103324819D02*
X155551286Y-103324819D01*
X155837000Y-103324819D02*
X155837000Y-102324819D01*
X155837000Y-102324819D02*
X155741762Y-102467676D01*
X155741762Y-102467676D02*
X155646524Y-102562914D01*
X155646524Y-102562914D02*
X155551286Y-102610533D01*
X132668819Y-103119047D02*
X132192628Y-103452380D01*
X132668819Y-103690475D02*
X131668819Y-103690475D01*
X131668819Y-103690475D02*
X131668819Y-103309523D01*
X131668819Y-103309523D02*
X131716438Y-103214285D01*
X131716438Y-103214285D02*
X131764057Y-103166666D01*
X131764057Y-103166666D02*
X131859295Y-103119047D01*
X131859295Y-103119047D02*
X132002152Y-103119047D01*
X132002152Y-103119047D02*
X132097390Y-103166666D01*
X132097390Y-103166666D02*
X132145009Y-103214285D01*
X132145009Y-103214285D02*
X132192628Y-103309523D01*
X132192628Y-103309523D02*
X132192628Y-103690475D01*
X132668819Y-102166666D02*
X132668819Y-102738094D01*
X132668819Y-102452380D02*
X131668819Y-102452380D01*
X131668819Y-102452380D02*
X131811676Y-102547618D01*
X131811676Y-102547618D02*
X131906914Y-102642856D01*
X131906914Y-102642856D02*
X131954533Y-102738094D01*
X131668819Y-101547618D02*
X131668819Y-101452380D01*
X131668819Y-101452380D02*
X131716438Y-101357142D01*
X131716438Y-101357142D02*
X131764057Y-101309523D01*
X131764057Y-101309523D02*
X131859295Y-101261904D01*
X131859295Y-101261904D02*
X132049771Y-101214285D01*
X132049771Y-101214285D02*
X132287866Y-101214285D01*
X132287866Y-101214285D02*
X132478342Y-101261904D01*
X132478342Y-101261904D02*
X132573580Y-101309523D01*
X132573580Y-101309523D02*
X132621200Y-101357142D01*
X132621200Y-101357142D02*
X132668819Y-101452380D01*
X132668819Y-101452380D02*
X132668819Y-101547618D01*
X132668819Y-101547618D02*
X132621200Y-101642856D01*
X132621200Y-101642856D02*
X132573580Y-101690475D01*
X132573580Y-101690475D02*
X132478342Y-101738094D01*
X132478342Y-101738094D02*
X132287866Y-101785713D01*
X132287866Y-101785713D02*
X132049771Y-101785713D01*
X132049771Y-101785713D02*
X131859295Y-101738094D01*
X131859295Y-101738094D02*
X131764057Y-101690475D01*
X131764057Y-101690475D02*
X131716438Y-101642856D01*
X131716438Y-101642856D02*
X131668819Y-101547618D01*
X132668819Y-100261904D02*
X132668819Y-100833332D01*
X132668819Y-100547618D02*
X131668819Y-100547618D01*
X131668819Y-100547618D02*
X131811676Y-100642856D01*
X131811676Y-100642856D02*
X131906914Y-100738094D01*
X131906914Y-100738094D02*
X131954533Y-100833332D01*
X135528819Y-102666666D02*
X135528819Y-103238094D01*
X135528819Y-102952380D02*
X134528819Y-102952380D01*
X134528819Y-102952380D02*
X134671676Y-103047618D01*
X134671676Y-103047618D02*
X134766914Y-103142856D01*
X134766914Y-103142856D02*
X134814533Y-103238094D01*
X134528819Y-102047618D02*
X134528819Y-101952380D01*
X134528819Y-101952380D02*
X134576438Y-101857142D01*
X134576438Y-101857142D02*
X134624057Y-101809523D01*
X134624057Y-101809523D02*
X134719295Y-101761904D01*
X134719295Y-101761904D02*
X134909771Y-101714285D01*
X134909771Y-101714285D02*
X135147866Y-101714285D01*
X135147866Y-101714285D02*
X135338342Y-101761904D01*
X135338342Y-101761904D02*
X135433580Y-101809523D01*
X135433580Y-101809523D02*
X135481200Y-101857142D01*
X135481200Y-101857142D02*
X135528819Y-101952380D01*
X135528819Y-101952380D02*
X135528819Y-102047618D01*
X135528819Y-102047618D02*
X135481200Y-102142856D01*
X135481200Y-102142856D02*
X135433580Y-102190475D01*
X135433580Y-102190475D02*
X135338342Y-102238094D01*
X135338342Y-102238094D02*
X135147866Y-102285713D01*
X135147866Y-102285713D02*
X134909771Y-102285713D01*
X134909771Y-102285713D02*
X134719295Y-102238094D01*
X134719295Y-102238094D02*
X134624057Y-102190475D01*
X134624057Y-102190475D02*
X134576438Y-102142856D01*
X134576438Y-102142856D02*
X134528819Y-102047618D01*
X134528819Y-101095237D02*
X134528819Y-100999999D01*
X134528819Y-100999999D02*
X134576438Y-100904761D01*
X134576438Y-100904761D02*
X134624057Y-100857142D01*
X134624057Y-100857142D02*
X134719295Y-100809523D01*
X134719295Y-100809523D02*
X134909771Y-100761904D01*
X134909771Y-100761904D02*
X135147866Y-100761904D01*
X135147866Y-100761904D02*
X135338342Y-100809523D01*
X135338342Y-100809523D02*
X135433580Y-100857142D01*
X135433580Y-100857142D02*
X135481200Y-100904761D01*
X135481200Y-100904761D02*
X135528819Y-100999999D01*
X135528819Y-100999999D02*
X135528819Y-101095237D01*
X135528819Y-101095237D02*
X135481200Y-101190475D01*
X135481200Y-101190475D02*
X135433580Y-101238094D01*
X135433580Y-101238094D02*
X135338342Y-101285713D01*
X135338342Y-101285713D02*
X135147866Y-101333332D01*
X135147866Y-101333332D02*
X134909771Y-101333332D01*
X134909771Y-101333332D02*
X134719295Y-101285713D01*
X134719295Y-101285713D02*
X134624057Y-101238094D01*
X134624057Y-101238094D02*
X134576438Y-101190475D01*
X134576438Y-101190475D02*
X134528819Y-101095237D01*
X148955285Y-105880819D02*
X148955285Y-106595104D01*
X148955285Y-106595104D02*
X148907666Y-106737961D01*
X148907666Y-106737961D02*
X148812428Y-106833200D01*
X148812428Y-106833200D02*
X148669571Y-106880819D01*
X148669571Y-106880819D02*
X148574333Y-106880819D01*
X149955285Y-106880819D02*
X149383857Y-106880819D01*
X149669571Y-106880819D02*
X149669571Y-105880819D01*
X149669571Y-105880819D02*
X149574333Y-106023676D01*
X149574333Y-106023676D02*
X149479095Y-106118914D01*
X149479095Y-106118914D02*
X149383857Y-106166533D01*
X150574333Y-105880819D02*
X150669571Y-105880819D01*
X150669571Y-105880819D02*
X150764809Y-105928438D01*
X150764809Y-105928438D02*
X150812428Y-105976057D01*
X150812428Y-105976057D02*
X150860047Y-106071295D01*
X150860047Y-106071295D02*
X150907666Y-106261771D01*
X150907666Y-106261771D02*
X150907666Y-106499866D01*
X150907666Y-106499866D02*
X150860047Y-106690342D01*
X150860047Y-106690342D02*
X150812428Y-106785580D01*
X150812428Y-106785580D02*
X150764809Y-106833200D01*
X150764809Y-106833200D02*
X150669571Y-106880819D01*
X150669571Y-106880819D02*
X150574333Y-106880819D01*
X150574333Y-106880819D02*
X150479095Y-106833200D01*
X150479095Y-106833200D02*
X150431476Y-106785580D01*
X150431476Y-106785580D02*
X150383857Y-106690342D01*
X150383857Y-106690342D02*
X150336238Y-106499866D01*
X150336238Y-106499866D02*
X150336238Y-106261771D01*
X150336238Y-106261771D02*
X150383857Y-106071295D01*
X150383857Y-106071295D02*
X150431476Y-105976057D01*
X150431476Y-105976057D02*
X150479095Y-105928438D01*
X150479095Y-105928438D02*
X150574333Y-105880819D01*
X151860047Y-106880819D02*
X151288619Y-106880819D01*
X151574333Y-106880819D02*
X151574333Y-105880819D01*
X151574333Y-105880819D02*
X151479095Y-106023676D01*
X151479095Y-106023676D02*
X151383857Y-106118914D01*
X151383857Y-106118914D02*
X151288619Y-106166533D01*
X153138475Y-106484009D02*
X153281332Y-106531628D01*
X153281332Y-106531628D02*
X153328951Y-106579247D01*
X153328951Y-106579247D02*
X153376570Y-106674485D01*
X153376570Y-106674485D02*
X153376570Y-106817342D01*
X153376570Y-106817342D02*
X153328951Y-106912580D01*
X153328951Y-106912580D02*
X153281332Y-106960200D01*
X153281332Y-106960200D02*
X153186094Y-107007819D01*
X153186094Y-107007819D02*
X152805142Y-107007819D01*
X152805142Y-107007819D02*
X152805142Y-106007819D01*
X152805142Y-106007819D02*
X153138475Y-106007819D01*
X153138475Y-106007819D02*
X153233713Y-106055438D01*
X153233713Y-106055438D02*
X153281332Y-106103057D01*
X153281332Y-106103057D02*
X153328951Y-106198295D01*
X153328951Y-106198295D02*
X153328951Y-106293533D01*
X153328951Y-106293533D02*
X153281332Y-106388771D01*
X153281332Y-106388771D02*
X153233713Y-106436390D01*
X153233713Y-106436390D02*
X153138475Y-106484009D01*
X153138475Y-106484009D02*
X152805142Y-106484009D01*
X153757523Y-106722104D02*
X154233713Y-106722104D01*
X153662285Y-107007819D02*
X153995618Y-106007819D01*
X153995618Y-106007819D02*
X154328951Y-107007819D01*
X154519428Y-106007819D02*
X155090856Y-106007819D01*
X154805142Y-107007819D02*
X154805142Y-106007819D01*
X155709904Y-107388771D02*
X155662285Y-107341152D01*
X155662285Y-107341152D02*
X155567047Y-107198295D01*
X155567047Y-107198295D02*
X155519428Y-107103057D01*
X155519428Y-107103057D02*
X155471809Y-106960200D01*
X155471809Y-106960200D02*
X155424190Y-106722104D01*
X155424190Y-106722104D02*
X155424190Y-106531628D01*
X155424190Y-106531628D02*
X155471809Y-106293533D01*
X155471809Y-106293533D02*
X155519428Y-106150676D01*
X155519428Y-106150676D02*
X155567047Y-106055438D01*
X155567047Y-106055438D02*
X155662285Y-105912580D01*
X155662285Y-105912580D02*
X155709904Y-105864961D01*
X155995619Y-106007819D02*
X156614666Y-106007819D01*
X156614666Y-106007819D02*
X156281333Y-106388771D01*
X156281333Y-106388771D02*
X156424190Y-106388771D01*
X156424190Y-106388771D02*
X156519428Y-106436390D01*
X156519428Y-106436390D02*
X156567047Y-106484009D01*
X156567047Y-106484009D02*
X156614666Y-106579247D01*
X156614666Y-106579247D02*
X156614666Y-106817342D01*
X156614666Y-106817342D02*
X156567047Y-106912580D01*
X156567047Y-106912580D02*
X156519428Y-106960200D01*
X156519428Y-106960200D02*
X156424190Y-107007819D01*
X156424190Y-107007819D02*
X156138476Y-107007819D01*
X156138476Y-107007819D02*
X156043238Y-106960200D01*
X156043238Y-106960200D02*
X155995619Y-106912580D01*
X156900381Y-106007819D02*
X157233714Y-107007819D01*
X157233714Y-107007819D02*
X157567047Y-106007819D01*
X157805143Y-107388771D02*
X157852762Y-107341152D01*
X157852762Y-107341152D02*
X157948000Y-107198295D01*
X157948000Y-107198295D02*
X157995619Y-107103057D01*
X157995619Y-107103057D02*
X158043238Y-106960200D01*
X158043238Y-106960200D02*
X158090857Y-106722104D01*
X158090857Y-106722104D02*
X158090857Y-106531628D01*
X158090857Y-106531628D02*
X158043238Y-106293533D01*
X158043238Y-106293533D02*
X157995619Y-106150676D01*
X157995619Y-106150676D02*
X157948000Y-106055438D01*
X157948000Y-106055438D02*
X157852762Y-105912580D01*
X157852762Y-105912580D02*
X157805143Y-105864961D01*
D13*
X180511665Y-108265380D02*
X181231332Y-108265380D01*
X181231332Y-108265380D02*
X181315998Y-108223047D01*
X181315998Y-108223047D02*
X181358332Y-108180713D01*
X181358332Y-108180713D02*
X181400665Y-108096047D01*
X181400665Y-108096047D02*
X181400665Y-107926713D01*
X181400665Y-107926713D02*
X181358332Y-107842047D01*
X181358332Y-107842047D02*
X181315998Y-107799713D01*
X181315998Y-107799713D02*
X181231332Y-107757380D01*
X181231332Y-107757380D02*
X180511665Y-107757380D01*
X181400665Y-106868380D02*
X181400665Y-107376380D01*
X181400665Y-107122380D02*
X180511665Y-107122380D01*
X180511665Y-107122380D02*
X180638665Y-107207047D01*
X180638665Y-107207047D02*
X180723332Y-107291714D01*
X180723332Y-107291714D02*
X180765665Y-107376380D01*
X180511665Y-106318047D02*
X180511665Y-106233380D01*
X180511665Y-106233380D02*
X180553998Y-106148713D01*
X180553998Y-106148713D02*
X180596332Y-106106380D01*
X180596332Y-106106380D02*
X180680998Y-106064047D01*
X180680998Y-106064047D02*
X180850332Y-106021713D01*
X180850332Y-106021713D02*
X181061998Y-106021713D01*
X181061998Y-106021713D02*
X181231332Y-106064047D01*
X181231332Y-106064047D02*
X181315998Y-106106380D01*
X181315998Y-106106380D02*
X181358332Y-106148713D01*
X181358332Y-106148713D02*
X181400665Y-106233380D01*
X181400665Y-106233380D02*
X181400665Y-106318047D01*
X181400665Y-106318047D02*
X181358332Y-106402713D01*
X181358332Y-106402713D02*
X181315998Y-106445047D01*
X181315998Y-106445047D02*
X181231332Y-106487380D01*
X181231332Y-106487380D02*
X181061998Y-106529713D01*
X181061998Y-106529713D02*
X180850332Y-106529713D01*
X180850332Y-106529713D02*
X180680998Y-106487380D01*
X180680998Y-106487380D02*
X180596332Y-106445047D01*
X180596332Y-106445047D02*
X180553998Y-106402713D01*
X180553998Y-106402713D02*
X180511665Y-106318047D01*
X181400665Y-105175046D02*
X181400665Y-105683046D01*
X181400665Y-105429046D02*
X180511665Y-105429046D01*
X180511665Y-105429046D02*
X180638665Y-105513713D01*
X180638665Y-105513713D02*
X180723332Y-105598380D01*
X180723332Y-105598380D02*
X180765665Y-105683046D01*
D14*
X170337020Y-110525451D02*
X170375115Y-110411165D01*
X170375115Y-110411165D02*
X170375115Y-110220689D01*
X170375115Y-110220689D02*
X170337020Y-110144498D01*
X170337020Y-110144498D02*
X170298924Y-110106403D01*
X170298924Y-110106403D02*
X170222734Y-110068308D01*
X170222734Y-110068308D02*
X170146543Y-110068308D01*
X170146543Y-110068308D02*
X170070353Y-110106403D01*
X170070353Y-110106403D02*
X170032258Y-110144498D01*
X170032258Y-110144498D02*
X169994162Y-110220689D01*
X169994162Y-110220689D02*
X169956067Y-110373070D01*
X169956067Y-110373070D02*
X169917972Y-110449260D01*
X169917972Y-110449260D02*
X169879877Y-110487355D01*
X169879877Y-110487355D02*
X169803686Y-110525451D01*
X169803686Y-110525451D02*
X169727496Y-110525451D01*
X169727496Y-110525451D02*
X169651305Y-110487355D01*
X169651305Y-110487355D02*
X169613210Y-110449260D01*
X169613210Y-110449260D02*
X169575115Y-110373070D01*
X169575115Y-110373070D02*
X169575115Y-110182593D01*
X169575115Y-110182593D02*
X169613210Y-110068308D01*
X170337020Y-109420688D02*
X170375115Y-109496879D01*
X170375115Y-109496879D02*
X170375115Y-109649260D01*
X170375115Y-109649260D02*
X170337020Y-109725450D01*
X170337020Y-109725450D02*
X170260829Y-109763546D01*
X170260829Y-109763546D02*
X169956067Y-109763546D01*
X169956067Y-109763546D02*
X169879877Y-109725450D01*
X169879877Y-109725450D02*
X169841781Y-109649260D01*
X169841781Y-109649260D02*
X169841781Y-109496879D01*
X169841781Y-109496879D02*
X169879877Y-109420688D01*
X169879877Y-109420688D02*
X169956067Y-109382593D01*
X169956067Y-109382593D02*
X170032258Y-109382593D01*
X170032258Y-109382593D02*
X170108448Y-109763546D01*
X170337020Y-108734974D02*
X170375115Y-108811165D01*
X170375115Y-108811165D02*
X170375115Y-108963546D01*
X170375115Y-108963546D02*
X170337020Y-109039736D01*
X170337020Y-109039736D02*
X170260829Y-109077832D01*
X170260829Y-109077832D02*
X169956067Y-109077832D01*
X169956067Y-109077832D02*
X169879877Y-109039736D01*
X169879877Y-109039736D02*
X169841781Y-108963546D01*
X169841781Y-108963546D02*
X169841781Y-108811165D01*
X169841781Y-108811165D02*
X169879877Y-108734974D01*
X169879877Y-108734974D02*
X169956067Y-108696879D01*
X169956067Y-108696879D02*
X170032258Y-108696879D01*
X170032258Y-108696879D02*
X170108448Y-109077832D01*
X170337020Y-108049260D02*
X170375115Y-108125451D01*
X170375115Y-108125451D02*
X170375115Y-108277832D01*
X170375115Y-108277832D02*
X170337020Y-108354022D01*
X170337020Y-108354022D02*
X170260829Y-108392118D01*
X170260829Y-108392118D02*
X169956067Y-108392118D01*
X169956067Y-108392118D02*
X169879877Y-108354022D01*
X169879877Y-108354022D02*
X169841781Y-108277832D01*
X169841781Y-108277832D02*
X169841781Y-108125451D01*
X169841781Y-108125451D02*
X169879877Y-108049260D01*
X169879877Y-108049260D02*
X169956067Y-108011165D01*
X169956067Y-108011165D02*
X170032258Y-108011165D01*
X170032258Y-108011165D02*
X170108448Y-108392118D01*
X170375115Y-107325451D02*
X169575115Y-107325451D01*
X170337020Y-107325451D02*
X170375115Y-107401642D01*
X170375115Y-107401642D02*
X170375115Y-107554023D01*
X170375115Y-107554023D02*
X170337020Y-107630213D01*
X170337020Y-107630213D02*
X170298924Y-107668308D01*
X170298924Y-107668308D02*
X170222734Y-107706404D01*
X170222734Y-107706404D02*
X169994162Y-107706404D01*
X169994162Y-107706404D02*
X169917972Y-107668308D01*
X169917972Y-107668308D02*
X169879877Y-107630213D01*
X169879877Y-107630213D02*
X169841781Y-107554023D01*
X169841781Y-107554023D02*
X169841781Y-107401642D01*
X169841781Y-107401642D02*
X169879877Y-107325451D01*
X169841781Y-106601641D02*
X170375115Y-106601641D01*
X169841781Y-106944498D02*
X170260829Y-106944498D01*
X170260829Y-106944498D02*
X170337020Y-106906403D01*
X170337020Y-106906403D02*
X170375115Y-106830213D01*
X170375115Y-106830213D02*
X170375115Y-106715927D01*
X170375115Y-106715927D02*
X170337020Y-106639736D01*
X170337020Y-106639736D02*
X170298924Y-106601641D01*
X170375115Y-106220688D02*
X169841781Y-106220688D01*
X169575115Y-106220688D02*
X169613210Y-106258784D01*
X169613210Y-106258784D02*
X169651305Y-106220688D01*
X169651305Y-106220688D02*
X169613210Y-106182593D01*
X169613210Y-106182593D02*
X169575115Y-106220688D01*
X169575115Y-106220688D02*
X169651305Y-106220688D01*
X169841781Y-105839736D02*
X170375115Y-105839736D01*
X169917972Y-105839736D02*
X169879877Y-105801641D01*
X169879877Y-105801641D02*
X169841781Y-105725451D01*
X169841781Y-105725451D02*
X169841781Y-105611165D01*
X169841781Y-105611165D02*
X169879877Y-105534974D01*
X169879877Y-105534974D02*
X169956067Y-105496879D01*
X169956067Y-105496879D02*
X170375115Y-105496879D01*
X170375115Y-105001641D02*
X170337020Y-105077831D01*
X170337020Y-105077831D02*
X170298924Y-105115926D01*
X170298924Y-105115926D02*
X170222734Y-105154022D01*
X170222734Y-105154022D02*
X169994162Y-105154022D01*
X169994162Y-105154022D02*
X169917972Y-105115926D01*
X169917972Y-105115926D02*
X169879877Y-105077831D01*
X169879877Y-105077831D02*
X169841781Y-105001641D01*
X169841781Y-105001641D02*
X169841781Y-104887355D01*
X169841781Y-104887355D02*
X169879877Y-104811164D01*
X169879877Y-104811164D02*
X169917972Y-104773069D01*
X169917972Y-104773069D02*
X169994162Y-104734974D01*
X169994162Y-104734974D02*
X170222734Y-104734974D01*
X170222734Y-104734974D02*
X170298924Y-104773069D01*
X170298924Y-104773069D02*
X170337020Y-104811164D01*
X170337020Y-104811164D02*
X170375115Y-104887355D01*
X170375115Y-104887355D02*
X170375115Y-105001641D01*
X169575115Y-104468307D02*
X170375115Y-103934973D01*
X169575115Y-103934973D02*
X170375115Y-104468307D01*
X170375115Y-103630211D02*
X169575115Y-103630211D01*
X170146543Y-103287355D02*
X170146543Y-102906402D01*
X170375115Y-103363545D02*
X169575115Y-103096878D01*
X169575115Y-103096878D02*
X170375115Y-102830212D01*
X169575115Y-102411164D02*
X169575115Y-102258783D01*
X169575115Y-102258783D02*
X169613210Y-102182593D01*
X169613210Y-102182593D02*
X169689400Y-102106402D01*
X169689400Y-102106402D02*
X169841781Y-102068307D01*
X169841781Y-102068307D02*
X170108448Y-102068307D01*
X170108448Y-102068307D02*
X170260829Y-102106402D01*
X170260829Y-102106402D02*
X170337020Y-102182593D01*
X170337020Y-102182593D02*
X170375115Y-102258783D01*
X170375115Y-102258783D02*
X170375115Y-102411164D01*
X170375115Y-102411164D02*
X170337020Y-102487355D01*
X170337020Y-102487355D02*
X170260829Y-102563545D01*
X170260829Y-102563545D02*
X170108448Y-102601641D01*
X170108448Y-102601641D02*
X169841781Y-102601641D01*
X169841781Y-102601641D02*
X169689400Y-102563545D01*
X169689400Y-102563545D02*
X169613210Y-102487355D01*
X169613210Y-102487355D02*
X169575115Y-102411164D01*
D12*
X165999952Y-118274580D02*
X165952333Y-118322200D01*
X165952333Y-118322200D02*
X165809476Y-118369819D01*
X165809476Y-118369819D02*
X165714238Y-118369819D01*
X165714238Y-118369819D02*
X165571381Y-118322200D01*
X165571381Y-118322200D02*
X165476143Y-118226961D01*
X165476143Y-118226961D02*
X165428524Y-118131723D01*
X165428524Y-118131723D02*
X165380905Y-117941247D01*
X165380905Y-117941247D02*
X165380905Y-117798390D01*
X165380905Y-117798390D02*
X165428524Y-117607914D01*
X165428524Y-117607914D02*
X165476143Y-117512676D01*
X165476143Y-117512676D02*
X165571381Y-117417438D01*
X165571381Y-117417438D02*
X165714238Y-117369819D01*
X165714238Y-117369819D02*
X165809476Y-117369819D01*
X165809476Y-117369819D02*
X165952333Y-117417438D01*
X165952333Y-117417438D02*
X165999952Y-117465057D01*
X166952333Y-118369819D02*
X166380905Y-118369819D01*
X166666619Y-118369819D02*
X166666619Y-117369819D01*
X166666619Y-117369819D02*
X166571381Y-117512676D01*
X166571381Y-117512676D02*
X166476143Y-117607914D01*
X166476143Y-117607914D02*
X166380905Y-117655533D01*
X167571381Y-117369819D02*
X167666619Y-117369819D01*
X167666619Y-117369819D02*
X167761857Y-117417438D01*
X167761857Y-117417438D02*
X167809476Y-117465057D01*
X167809476Y-117465057D02*
X167857095Y-117560295D01*
X167857095Y-117560295D02*
X167904714Y-117750771D01*
X167904714Y-117750771D02*
X167904714Y-117988866D01*
X167904714Y-117988866D02*
X167857095Y-118179342D01*
X167857095Y-118179342D02*
X167809476Y-118274580D01*
X167809476Y-118274580D02*
X167761857Y-118322200D01*
X167761857Y-118322200D02*
X167666619Y-118369819D01*
X167666619Y-118369819D02*
X167571381Y-118369819D01*
X167571381Y-118369819D02*
X167476143Y-118322200D01*
X167476143Y-118322200D02*
X167428524Y-118274580D01*
X167428524Y-118274580D02*
X167380905Y-118179342D01*
X167380905Y-118179342D02*
X167333286Y-117988866D01*
X167333286Y-117988866D02*
X167333286Y-117750771D01*
X167333286Y-117750771D02*
X167380905Y-117560295D01*
X167380905Y-117560295D02*
X167428524Y-117465057D01*
X167428524Y-117465057D02*
X167476143Y-117417438D01*
X167476143Y-117417438D02*
X167571381Y-117369819D01*
X168285667Y-117465057D02*
X168333286Y-117417438D01*
X168333286Y-117417438D02*
X168428524Y-117369819D01*
X168428524Y-117369819D02*
X168666619Y-117369819D01*
X168666619Y-117369819D02*
X168761857Y-117417438D01*
X168761857Y-117417438D02*
X168809476Y-117465057D01*
X168809476Y-117465057D02*
X168857095Y-117560295D01*
X168857095Y-117560295D02*
X168857095Y-117655533D01*
X168857095Y-117655533D02*
X168809476Y-117798390D01*
X168809476Y-117798390D02*
X168238048Y-118369819D01*
X168238048Y-118369819D02*
X168857095Y-118369819D01*
X174047571Y-118369819D02*
X173476143Y-118369819D01*
X173761857Y-118369819D02*
X173761857Y-117369819D01*
X173761857Y-117369819D02*
X173666619Y-117512676D01*
X173666619Y-117512676D02*
X173571381Y-117607914D01*
X173571381Y-117607914D02*
X173476143Y-117655533D01*
X174666619Y-117369819D02*
X174761857Y-117369819D01*
X174761857Y-117369819D02*
X174857095Y-117417438D01*
X174857095Y-117417438D02*
X174904714Y-117465057D01*
X174904714Y-117465057D02*
X174952333Y-117560295D01*
X174952333Y-117560295D02*
X174999952Y-117750771D01*
X174999952Y-117750771D02*
X174999952Y-117988866D01*
X174999952Y-117988866D02*
X174952333Y-118179342D01*
X174952333Y-118179342D02*
X174904714Y-118274580D01*
X174904714Y-118274580D02*
X174857095Y-118322200D01*
X174857095Y-118322200D02*
X174761857Y-118369819D01*
X174761857Y-118369819D02*
X174666619Y-118369819D01*
X174666619Y-118369819D02*
X174571381Y-118322200D01*
X174571381Y-118322200D02*
X174523762Y-118274580D01*
X174523762Y-118274580D02*
X174476143Y-118179342D01*
X174476143Y-118179342D02*
X174428524Y-117988866D01*
X174428524Y-117988866D02*
X174428524Y-117750771D01*
X174428524Y-117750771D02*
X174476143Y-117560295D01*
X174476143Y-117560295D02*
X174523762Y-117465057D01*
X174523762Y-117465057D02*
X174571381Y-117417438D01*
X174571381Y-117417438D02*
X174666619Y-117369819D01*
X175857095Y-117703152D02*
X175857095Y-118369819D01*
X175428524Y-117703152D02*
X175428524Y-118226961D01*
X175428524Y-118226961D02*
X175476143Y-118322200D01*
X175476143Y-118322200D02*
X175571381Y-118369819D01*
X175571381Y-118369819D02*
X175714238Y-118369819D01*
X175714238Y-118369819D02*
X175809476Y-118322200D01*
X175809476Y-118322200D02*
X175857095Y-118274580D01*
X176666619Y-117846009D02*
X176333286Y-117846009D01*
X176333286Y-118369819D02*
X176333286Y-117369819D01*
X176333286Y-117369819D02*
X176809476Y-117369819D01*
X138112714Y-93434819D02*
X138112714Y-94244342D01*
X138112714Y-94244342D02*
X138160333Y-94339580D01*
X138160333Y-94339580D02*
X138207952Y-94387200D01*
X138207952Y-94387200D02*
X138303190Y-94434819D01*
X138303190Y-94434819D02*
X138493666Y-94434819D01*
X138493666Y-94434819D02*
X138588904Y-94387200D01*
X138588904Y-94387200D02*
X138636523Y-94339580D01*
X138636523Y-94339580D02*
X138684142Y-94244342D01*
X138684142Y-94244342D02*
X138684142Y-93434819D01*
X139684142Y-94434819D02*
X139112714Y-94434819D01*
X139398428Y-94434819D02*
X139398428Y-93434819D01*
X139398428Y-93434819D02*
X139303190Y-93577676D01*
X139303190Y-93577676D02*
X139207952Y-93672914D01*
X139207952Y-93672914D02*
X139112714Y-93720533D01*
X140303190Y-93434819D02*
X140398428Y-93434819D01*
X140398428Y-93434819D02*
X140493666Y-93482438D01*
X140493666Y-93482438D02*
X140541285Y-93530057D01*
X140541285Y-93530057D02*
X140588904Y-93625295D01*
X140588904Y-93625295D02*
X140636523Y-93815771D01*
X140636523Y-93815771D02*
X140636523Y-94053866D01*
X140636523Y-94053866D02*
X140588904Y-94244342D01*
X140588904Y-94244342D02*
X140541285Y-94339580D01*
X140541285Y-94339580D02*
X140493666Y-94387200D01*
X140493666Y-94387200D02*
X140398428Y-94434819D01*
X140398428Y-94434819D02*
X140303190Y-94434819D01*
X140303190Y-94434819D02*
X140207952Y-94387200D01*
X140207952Y-94387200D02*
X140160333Y-94339580D01*
X140160333Y-94339580D02*
X140112714Y-94244342D01*
X140112714Y-94244342D02*
X140065095Y-94053866D01*
X140065095Y-94053866D02*
X140065095Y-93815771D01*
X140065095Y-93815771D02*
X140112714Y-93625295D01*
X140112714Y-93625295D02*
X140160333Y-93530057D01*
X140160333Y-93530057D02*
X140207952Y-93482438D01*
X140207952Y-93482438D02*
X140303190Y-93434819D01*
X141017476Y-93530057D02*
X141065095Y-93482438D01*
X141065095Y-93482438D02*
X141160333Y-93434819D01*
X141160333Y-93434819D02*
X141398428Y-93434819D01*
X141398428Y-93434819D02*
X141493666Y-93482438D01*
X141493666Y-93482438D02*
X141541285Y-93530057D01*
X141541285Y-93530057D02*
X141588904Y-93625295D01*
X141588904Y-93625295D02*
X141588904Y-93720533D01*
X141588904Y-93720533D02*
X141541285Y-93863390D01*
X141541285Y-93863390D02*
X140969857Y-94434819D01*
X140969857Y-94434819D02*
X141588904Y-94434819D01*
X133994819Y-108820475D02*
X132994819Y-108820475D01*
X132994819Y-108820475D02*
X132994819Y-108582380D01*
X132994819Y-108582380D02*
X133042438Y-108439523D01*
X133042438Y-108439523D02*
X133137676Y-108344285D01*
X133137676Y-108344285D02*
X133232914Y-108296666D01*
X133232914Y-108296666D02*
X133423390Y-108249047D01*
X133423390Y-108249047D02*
X133566247Y-108249047D01*
X133566247Y-108249047D02*
X133756723Y-108296666D01*
X133756723Y-108296666D02*
X133851961Y-108344285D01*
X133851961Y-108344285D02*
X133947200Y-108439523D01*
X133947200Y-108439523D02*
X133994819Y-108582380D01*
X133994819Y-108582380D02*
X133994819Y-108820475D01*
X133994819Y-107296666D02*
X133994819Y-107868094D01*
X133994819Y-107582380D02*
X132994819Y-107582380D01*
X132994819Y-107582380D02*
X133137676Y-107677618D01*
X133137676Y-107677618D02*
X133232914Y-107772856D01*
X133232914Y-107772856D02*
X133280533Y-107868094D01*
X132994819Y-106677618D02*
X132994819Y-106582380D01*
X132994819Y-106582380D02*
X133042438Y-106487142D01*
X133042438Y-106487142D02*
X133090057Y-106439523D01*
X133090057Y-106439523D02*
X133185295Y-106391904D01*
X133185295Y-106391904D02*
X133375771Y-106344285D01*
X133375771Y-106344285D02*
X133613866Y-106344285D01*
X133613866Y-106344285D02*
X133804342Y-106391904D01*
X133804342Y-106391904D02*
X133899580Y-106439523D01*
X133899580Y-106439523D02*
X133947200Y-106487142D01*
X133947200Y-106487142D02*
X133994819Y-106582380D01*
X133994819Y-106582380D02*
X133994819Y-106677618D01*
X133994819Y-106677618D02*
X133947200Y-106772856D01*
X133947200Y-106772856D02*
X133899580Y-106820475D01*
X133899580Y-106820475D02*
X133804342Y-106868094D01*
X133804342Y-106868094D02*
X133613866Y-106915713D01*
X133613866Y-106915713D02*
X133375771Y-106915713D01*
X133375771Y-106915713D02*
X133185295Y-106868094D01*
X133185295Y-106868094D02*
X133090057Y-106820475D01*
X133090057Y-106820475D02*
X133042438Y-106772856D01*
X133042438Y-106772856D02*
X132994819Y-106677618D01*
X133994819Y-105391904D02*
X133994819Y-105963332D01*
X133994819Y-105677618D02*
X132994819Y-105677618D01*
X132994819Y-105677618D02*
X133137676Y-105772856D01*
X133137676Y-105772856D02*
X133232914Y-105868094D01*
X133232914Y-105868094D02*
X133280533Y-105963332D01*
X167790952Y-94203580D02*
X167743333Y-94251200D01*
X167743333Y-94251200D02*
X167600476Y-94298819D01*
X167600476Y-94298819D02*
X167505238Y-94298819D01*
X167505238Y-94298819D02*
X167362381Y-94251200D01*
X167362381Y-94251200D02*
X167267143Y-94155961D01*
X167267143Y-94155961D02*
X167219524Y-94060723D01*
X167219524Y-94060723D02*
X167171905Y-93870247D01*
X167171905Y-93870247D02*
X167171905Y-93727390D01*
X167171905Y-93727390D02*
X167219524Y-93536914D01*
X167219524Y-93536914D02*
X167267143Y-93441676D01*
X167267143Y-93441676D02*
X167362381Y-93346438D01*
X167362381Y-93346438D02*
X167505238Y-93298819D01*
X167505238Y-93298819D02*
X167600476Y-93298819D01*
X167600476Y-93298819D02*
X167743333Y-93346438D01*
X167743333Y-93346438D02*
X167790952Y-93394057D01*
X168743333Y-94298819D02*
X168171905Y-94298819D01*
X168457619Y-94298819D02*
X168457619Y-93298819D01*
X168457619Y-93298819D02*
X168362381Y-93441676D01*
X168362381Y-93441676D02*
X168267143Y-93536914D01*
X168267143Y-93536914D02*
X168171905Y-93584533D01*
X169362381Y-93298819D02*
X169457619Y-93298819D01*
X169457619Y-93298819D02*
X169552857Y-93346438D01*
X169552857Y-93346438D02*
X169600476Y-93394057D01*
X169600476Y-93394057D02*
X169648095Y-93489295D01*
X169648095Y-93489295D02*
X169695714Y-93679771D01*
X169695714Y-93679771D02*
X169695714Y-93917866D01*
X169695714Y-93917866D02*
X169648095Y-94108342D01*
X169648095Y-94108342D02*
X169600476Y-94203580D01*
X169600476Y-94203580D02*
X169552857Y-94251200D01*
X169552857Y-94251200D02*
X169457619Y-94298819D01*
X169457619Y-94298819D02*
X169362381Y-94298819D01*
X169362381Y-94298819D02*
X169267143Y-94251200D01*
X169267143Y-94251200D02*
X169219524Y-94203580D01*
X169219524Y-94203580D02*
X169171905Y-94108342D01*
X169171905Y-94108342D02*
X169124286Y-93917866D01*
X169124286Y-93917866D02*
X169124286Y-93679771D01*
X169124286Y-93679771D02*
X169171905Y-93489295D01*
X169171905Y-93489295D02*
X169219524Y-93394057D01*
X169219524Y-93394057D02*
X169267143Y-93346438D01*
X169267143Y-93346438D02*
X169362381Y-93298819D01*
X170648095Y-94298819D02*
X170076667Y-94298819D01*
X170362381Y-94298819D02*
X170362381Y-93298819D01*
X170362381Y-93298819D02*
X170267143Y-93441676D01*
X170267143Y-93441676D02*
X170171905Y-93536914D01*
X170171905Y-93536914D02*
X170076667Y-93584533D01*
X174887143Y-93434819D02*
X174982381Y-93434819D01*
X174982381Y-93434819D02*
X175077619Y-93482438D01*
X175077619Y-93482438D02*
X175125238Y-93530057D01*
X175125238Y-93530057D02*
X175172857Y-93625295D01*
X175172857Y-93625295D02*
X175220476Y-93815771D01*
X175220476Y-93815771D02*
X175220476Y-94053866D01*
X175220476Y-94053866D02*
X175172857Y-94244342D01*
X175172857Y-94244342D02*
X175125238Y-94339580D01*
X175125238Y-94339580D02*
X175077619Y-94387200D01*
X175077619Y-94387200D02*
X174982381Y-94434819D01*
X174982381Y-94434819D02*
X174887143Y-94434819D01*
X174887143Y-94434819D02*
X174791905Y-94387200D01*
X174791905Y-94387200D02*
X174744286Y-94339580D01*
X174744286Y-94339580D02*
X174696667Y-94244342D01*
X174696667Y-94244342D02*
X174649048Y-94053866D01*
X174649048Y-94053866D02*
X174649048Y-93815771D01*
X174649048Y-93815771D02*
X174696667Y-93625295D01*
X174696667Y-93625295D02*
X174744286Y-93530057D01*
X174744286Y-93530057D02*
X174791905Y-93482438D01*
X174791905Y-93482438D02*
X174887143Y-93434819D01*
X175649048Y-94339580D02*
X175696667Y-94387200D01*
X175696667Y-94387200D02*
X175649048Y-94434819D01*
X175649048Y-94434819D02*
X175601429Y-94387200D01*
X175601429Y-94387200D02*
X175649048Y-94339580D01*
X175649048Y-94339580D02*
X175649048Y-94434819D01*
X176649047Y-94434819D02*
X176077619Y-94434819D01*
X176363333Y-94434819D02*
X176363333Y-93434819D01*
X176363333Y-93434819D02*
X176268095Y-93577676D01*
X176268095Y-93577676D02*
X176172857Y-93672914D01*
X176172857Y-93672914D02*
X176077619Y-93720533D01*
X177506190Y-93768152D02*
X177506190Y-94434819D01*
X177077619Y-93768152D02*
X177077619Y-94291961D01*
X177077619Y-94291961D02*
X177125238Y-94387200D01*
X177125238Y-94387200D02*
X177220476Y-94434819D01*
X177220476Y-94434819D02*
X177363333Y-94434819D01*
X177363333Y-94434819D02*
X177458571Y-94387200D01*
X177458571Y-94387200D02*
X177506190Y-94339580D01*
X178315714Y-93911009D02*
X177982381Y-93911009D01*
X177982381Y-94434819D02*
X177982381Y-93434819D01*
X177982381Y-93434819D02*
X178458571Y-93434819D01*
D15*
%TO.C,U103*%
X146177000Y-105410000D02*
X148082000Y-107315000D01*
X137922000Y-105410000D02*
X148082000Y-105410000D01*
X148082000Y-115570000D01*
X137922000Y-115570000D01*
X137922000Y-105410000D01*
X145620172Y-110490000D02*
G75*
G02*
X140383828Y-110490000I-2618172J0D01*
G01*
X140383828Y-110490000D02*
G75*
G02*
X145620172Y-110490000I2618172J0D01*
G01*
X148121534Y-110490000D02*
G75*
G02*
X137882466Y-110490000I-5119534J0D01*
G01*
X137882466Y-110490000D02*
G75*
G02*
X148121534Y-110490000I5119534J0D01*
G01*
%TO.C,SW101*%
X150710000Y-97790000D02*
X150710000Y-100330000D01*
X150710000Y-100330000D02*
X152440000Y-102060000D01*
X152440000Y-96060000D02*
X150710000Y-97790000D01*
X152440000Y-102060000D02*
X154980000Y-102060000D01*
X154980000Y-96060000D02*
X152440000Y-96060000D01*
X154980000Y-102060000D02*
X156710000Y-100330000D01*
X156710000Y-97790000D02*
X154980000Y-96060000D01*
X156710000Y-100330000D02*
X156710000Y-97790000D01*
X155492530Y-99060000D02*
G75*
G02*
X151927470Y-99060000I-1782530J0D01*
G01*
X151927470Y-99060000D02*
G75*
G02*
X155492530Y-99060000I1782530J0D01*
G01*
%TO.C,R101*%
X133121500Y-103090224D02*
X133121500Y-102580776D01*
X134166500Y-103090224D02*
X134166500Y-102580776D01*
%TO.C,J101*%
X149849200Y-107805000D02*
X151269200Y-107805000D01*
X149849200Y-119525000D02*
X149849200Y-107805000D01*
X151269200Y-107805000D02*
X151269200Y-112305000D01*
X151269200Y-112305000D02*
X153659200Y-112305000D01*
X152109200Y-108115000D02*
X152709200Y-108115000D01*
X152159200Y-113415000D02*
X152159200Y-118915000D01*
X152159200Y-118915000D02*
X152659200Y-118915000D01*
X152409200Y-108715000D02*
X152109200Y-108115000D01*
X152659200Y-113415000D02*
X152159200Y-113415000D01*
X152659200Y-118915000D02*
X152659200Y-113415000D01*
X152709200Y-108115000D02*
X152409200Y-108715000D01*
X153659200Y-119525000D02*
X149849200Y-119525000D01*
X153659200Y-119525000D02*
X157469200Y-119525000D01*
X154659200Y-113415000D02*
X154659200Y-118915000D01*
X154659200Y-118915000D02*
X155159200Y-118915000D01*
X155159200Y-113415000D02*
X154659200Y-113415000D01*
X155159200Y-118915000D02*
X155159200Y-113415000D01*
X156049200Y-107805000D02*
X156049200Y-112305000D01*
X156049200Y-112305000D02*
X153659200Y-112305000D01*
X157469200Y-107805000D02*
X156049200Y-107805000D01*
X157469200Y-119525000D02*
X157469200Y-107805000D01*
D16*
%TO.C,U101*%
X159214180Y-97406880D02*
X159214180Y-115204660D01*
X159214180Y-115204660D02*
X180212360Y-115204660D01*
D17*
X159849180Y-103756880D02*
X159849180Y-109471880D01*
X159849180Y-103756880D02*
X162389180Y-103756880D01*
X159849180Y-109471880D02*
X162389180Y-109471880D01*
X162389180Y-103756880D02*
X162389180Y-109471880D01*
X173562640Y-101089880D02*
X173562640Y-102867880D01*
X173562640Y-101089880D02*
X176232180Y-101089880D01*
X173562640Y-102867880D02*
X176232180Y-102867880D01*
X173562640Y-109725880D02*
X173562640Y-111503880D01*
X173562640Y-109725880D02*
X176232180Y-109725880D01*
X173562640Y-111503880D02*
X176232180Y-111503880D01*
D16*
X174284000Y-101801080D02*
X181637300Y-101801080D01*
X174284000Y-110800300D02*
X174284000Y-101801080D01*
D17*
X176232180Y-101089880D02*
X176232180Y-102867880D01*
X176232180Y-109725880D02*
X176232180Y-111503880D01*
X176994180Y-103756880D02*
X176994180Y-108836880D01*
X176994180Y-103756880D02*
X179534180Y-103756880D01*
X176994180Y-108836880D02*
X179534180Y-108836880D01*
X177629180Y-101089880D02*
X177629180Y-102867880D01*
X177629180Y-101089880D02*
X180296180Y-101089880D01*
X177629180Y-102867880D02*
X180296180Y-102867880D01*
X177629180Y-109725880D02*
X177629180Y-111503880D01*
X177629180Y-109725880D02*
X180296180Y-109725880D01*
X177629180Y-111503880D02*
X180296180Y-111503880D01*
X179534180Y-103756880D02*
X179534180Y-108836880D01*
D16*
X179541800Y-97406880D02*
X159214180Y-97406880D01*
X180212360Y-98077440D02*
X179541800Y-97406880D01*
X180212360Y-115204660D02*
X180212360Y-98077440D01*
D17*
X180296180Y-101089880D02*
X180296180Y-102867880D01*
X180296180Y-109725880D02*
X180296180Y-111503880D01*
D16*
X181637300Y-101806160D02*
X181637300Y-110800300D01*
X181637300Y-110800300D02*
X174284000Y-110800300D01*
D18*
X177502180Y-96517880D02*
G75*
G02*
X177248180Y-96517880I-127000J0D01*
G01*
X177248180Y-96517880D02*
G75*
G02*
X177502180Y-96517880I127000J0D01*
G01*
D15*
%TO.C,C102*%
X171330252Y-116994000D02*
X170807748Y-116994000D01*
X171330252Y-118464000D02*
X170807748Y-118464000D01*
%TO.C,U102*%
X146177000Y-94615000D02*
X148082000Y-96520000D01*
X137922000Y-94615000D02*
X148082000Y-94615000D01*
X148082000Y-104775000D01*
X137922000Y-104775000D01*
X137922000Y-94615000D01*
X145620172Y-99695000D02*
G75*
G02*
X140383828Y-99695000I-2618172J0D01*
G01*
X140383828Y-99695000D02*
G75*
G02*
X145620172Y-99695000I2618172J0D01*
G01*
X148121534Y-99695000D02*
G75*
G02*
X137882466Y-99695000I-5119534J0D01*
G01*
X137882466Y-99695000D02*
G75*
G02*
X148121534Y-99695000I5119534J0D01*
G01*
%TO.C,D101*%
X131125000Y-104570000D02*
X128035000Y-104570000D01*
X129580462Y-110120000D02*
G75*
G02*
X128035170Y-104570000I-462J2990000D01*
G01*
X131124830Y-104570000D02*
G75*
G02*
X129579538Y-110120000I-1544830J-2560000D01*
G01*
X132080000Y-107130000D02*
G75*
G02*
X127080000Y-107130000I-2500000J0D01*
G01*
X127080000Y-107130000D02*
G75*
G02*
X132080000Y-107130000I2500000J0D01*
G01*
%TO.C,C101*%
X172573733Y-93412000D02*
X172866267Y-93412000D01*
X172573733Y-94432000D02*
X172866267Y-94432000D01*
%TD*%
M02*
