%TF.GenerationSoftware,KiCad,Pcbnew,8.0.4-8.0.4-0~ubuntu22.04.1*%
%TF.CreationDate,2024-07-31T14:37:32+09:00*%
%TF.ProjectId,Q960,51393630-2e6b-4696-9361-645f70636258,1.00*%
%TF.SameCoordinates,Original*%
%TF.FileFunction,Copper,L2,Bot*%
%TF.FilePolarity,Positive*%
%FSLAX46Y46*%
G04 Gerber Fmt 4.6, Leading zero omitted, Abs format (unit mm)*
G04 Created by KiCad (PCBNEW 8.0.4-8.0.4-0~ubuntu22.04.1) date 2024-07-31 14:37:32*
%MOMM*%
%LPD*%
G01*
G04 APERTURE LIST*
G04 Aperture macros list*
%AMRoundRect*
0 Rectangle with rounded corners*
0 $1 Rounding radius*
0 $2 $3 $4 $5 $6 $7 $8 $9 X,Y pos of 4 corners*
0 Add a 4 corners polygon primitive as box body*
4,1,4,$2,$3,$4,$5,$6,$7,$8,$9,$2,$3,0*
0 Add four circle primitives for the rounded corners*
1,1,$1+$1,$2,$3*
1,1,$1+$1,$4,$5*
1,1,$1+$1,$6,$7*
1,1,$1+$1,$8,$9*
0 Add four rect primitives between the rounded corners*
20,1,$1+$1,$2,$3,$4,$5,0*
20,1,$1+$1,$4,$5,$6,$7,0*
20,1,$1+$1,$6,$7,$8,$9,0*
20,1,$1+$1,$8,$9,$2,$3,0*%
G04 Aperture macros list end*
%TA.AperFunction,ComponentPad*%
%ADD10C,1.600000*%
%TD*%
%TA.AperFunction,ComponentPad*%
%ADD11C,2.000000*%
%TD*%
%TA.AperFunction,ComponentPad*%
%ADD12RoundRect,0.250000X-0.600000X-0.750000X0.600000X-0.750000X0.600000X0.750000X-0.600000X0.750000X0*%
%TD*%
%TA.AperFunction,ComponentPad*%
%ADD13O,1.700000X2.000000*%
%TD*%
%TA.AperFunction,ComponentPad*%
%ADD14R,1.800000X1.800000*%
%TD*%
%TA.AperFunction,ComponentPad*%
%ADD15C,1.800000*%
%TD*%
%TA.AperFunction,ViaPad*%
%ADD16C,0.600000*%
%TD*%
%TA.AperFunction,Conductor*%
%ADD17C,0.200000*%
%TD*%
%TA.AperFunction,Conductor*%
%ADD18C,1.000000*%
%TD*%
G04 APERTURE END LIST*
D10*
%TO.P,U103,1,1*%
%TO.N,Net-(U101-PB09_A7_D7_RX)*%
X139192000Y-106680000D03*
%TO.P,U103,2,2*%
%TO.N,Net-(U101-PA7_A8_D8_SCK)*%
X141732000Y-106680000D03*
%TO.P,U103,4,4*%
%TO.N,Net-(U101-PA5_A9_D9_MISO)*%
X144272000Y-106680000D03*
%TO.P,U103,8,8*%
%TO.N,Net-(U101-PA6_A10_D10_MOSI)*%
X146812000Y-106680000D03*
%TO.P,U103,C,C*%
%TO.N,GND*%
X141732000Y-114300000D03*
%TD*%
D11*
%TO.P,SW101,1,1*%
%TO.N,GND*%
X151210000Y-99060000D03*
%TO.P,SW101,2,2*%
%TO.N,Net-(U101-PA10_A2_D2)*%
X156210000Y-99060000D03*
%TD*%
D12*
%TO.P,J101,1,Pin_1*%
%TO.N,GND*%
X152409200Y-110215000D03*
D13*
%TO.P,J101,2,Pin_2*%
%TO.N,Net-(J101-Pin_2)*%
X154909200Y-110215000D03*
%TD*%
D10*
%TO.P,U102,1,1*%
%TO.N,Net-(U101-PA11_A3_D3)*%
X139192000Y-95885000D03*
%TO.P,U102,2,2*%
%TO.N,Net-(U101-PA8_A4_D4_SDA)*%
X141732000Y-95885000D03*
%TO.P,U102,4,4*%
%TO.N,Net-(U101-PA9_A5_D5_SCL)*%
X144272000Y-95885000D03*
%TO.P,U102,8,8*%
%TO.N,Net-(U101-PB08_A6_D6_TX)*%
X146812000Y-95885000D03*
%TO.P,U102,C,C*%
%TO.N,GND*%
X141732000Y-103505000D03*
%TD*%
D14*
%TO.P,D101,1,K*%
%TO.N,GND*%
X129580000Y-105860000D03*
D15*
%TO.P,D101,2,A*%
%TO.N,Net-(D101-A)*%
X129580000Y-108400000D03*
%TD*%
D16*
%TO.N,Net-(U101-PA10_A2_D2)*%
X172212000Y-98298000D03*
%TO.N,Net-(J101-Pin_2)*%
X172085000Y-117729000D03*
%TO.N,Net-(D101-A)*%
X133604000Y-103759000D03*
%TO.N,Net-(U101-PA02_A0_D0)*%
X177292000Y-98298000D03*
X133604000Y-101981000D03*
%TO.N,Net-(U101-PA6_A10_D10_MOSI)*%
X169722800Y-114300000D03*
%TD*%
D17*
%TO.N,Net-(U101-PA10_A2_D2)*%
X172252000Y-100163000D02*
X171450000Y-100965000D01*
X158115000Y-100965000D02*
X171450000Y-100965000D01*
X172212000Y-98298000D02*
X172252000Y-98338000D01*
X172252000Y-98258000D02*
X172212000Y-98298000D01*
X172252000Y-98240000D02*
X172252000Y-98258000D01*
X172252000Y-98338000D02*
X172252000Y-100163000D01*
X156210000Y-99060000D02*
X158115000Y-100965000D01*
D18*
%TO.N,Net-(J101-Pin_2)*%
X154940000Y-119380000D02*
X172085000Y-119380000D01*
X172085000Y-119380000D02*
X172085000Y-117729000D01*
X154940000Y-119380000D02*
X154909200Y-110215000D01*
D17*
%TO.N,Net-(D101-A)*%
X133604000Y-103759000D02*
X133644000Y-107021000D01*
X132265000Y-108400000D02*
X129580000Y-108400000D01*
X133644000Y-107021000D02*
X132265000Y-108400000D01*
X133644000Y-103748000D02*
X133604000Y-103759000D01*
%TO.N,Net-(U101-PA02_A0_D0)*%
X133604000Y-101981000D02*
X133731000Y-101981000D01*
X177292000Y-98298000D02*
X173609000Y-101981000D01*
X173609000Y-101981000D02*
X133604000Y-101981000D01*
%TO.N,Net-(U101-PA6_A10_D10_MOSI)*%
X169722800Y-114300000D02*
X169712000Y-114310800D01*
X169712000Y-110022000D02*
X169712000Y-114289200D01*
X159258000Y-109347000D02*
X169037000Y-109347000D01*
X169712000Y-114310800D02*
X169712000Y-114404560D01*
X157831000Y-107920000D02*
X159258000Y-109347000D01*
X147500000Y-107368000D02*
X146812000Y-106680000D01*
X169712000Y-114289200D02*
X169722800Y-114300000D01*
X169037000Y-109347000D02*
X169712000Y-110022000D01*
X147500000Y-107920000D02*
X147500000Y-107368000D01*
X147500000Y-107920000D02*
X157831000Y-107920000D01*
%TD*%
M02*
