%TF.GenerationSoftware,KiCad,Pcbnew,8.0.4-8.0.4-0~ubuntu22.04.1*%
%TF.CreationDate,2024-07-31T14:37:32+09:00*%
%TF.ProjectId,Q960,51393630-2e6b-4696-9361-645f70636258,1.00*%
%TF.SameCoordinates,Original*%
%TF.FileFunction,Copper,L1,Top*%
%TF.FilePolarity,Positive*%
%FSLAX46Y46*%
G04 Gerber Fmt 4.6, Leading zero omitted, Abs format (unit mm)*
G04 Created by KiCad (PCBNEW 8.0.4-8.0.4-0~ubuntu22.04.1) date 2024-07-31 14:37:32*
%MOMM*%
%LPD*%
G01*
G04 APERTURE LIST*
G04 Aperture macros list*
%AMRoundRect*
0 Rectangle with rounded corners*
0 $1 Rounding radius*
0 $2 $3 $4 $5 $6 $7 $8 $9 X,Y pos of 4 corners*
0 Add a 4 corners polygon primitive as box body*
4,1,4,$2,$3,$4,$5,$6,$7,$8,$9,$2,$3,0*
0 Add four circle primitives for the rounded corners*
1,1,$1+$1,$2,$3*
1,1,$1+$1,$4,$5*
1,1,$1+$1,$6,$7*
1,1,$1+$1,$8,$9*
0 Add four rect primitives between the rounded corners*
20,1,$1+$1,$2,$3,$4,$5,0*
20,1,$1+$1,$4,$5,$6,$7,0*
20,1,$1+$1,$6,$7,$8,$9,0*
20,1,$1+$1,$8,$9,$2,$3,0*%
G04 Aperture macros list end*
%TA.AperFunction,Conductor*%
%ADD10C,0.200000*%
%TD*%
%TA.AperFunction,ComponentPad*%
%ADD11C,1.600000*%
%TD*%
%TA.AperFunction,ComponentPad*%
%ADD12C,2.000000*%
%TD*%
%TA.AperFunction,SMDPad,CuDef*%
%ADD13RoundRect,0.237500X0.237500X-0.250000X0.237500X0.250000X-0.237500X0.250000X-0.237500X-0.250000X0*%
%TD*%
%TA.AperFunction,ComponentPad*%
%ADD14RoundRect,0.250000X-0.600000X-0.750000X0.600000X-0.750000X0.600000X0.750000X-0.600000X0.750000X0*%
%TD*%
%TA.AperFunction,ComponentPad*%
%ADD15O,1.700000X2.000000*%
%TD*%
%TA.AperFunction,SMDPad,CuDef*%
%ADD16O,1.998980X2.748280*%
%TD*%
%TA.AperFunction,SMDPad,CuDef*%
%ADD17O,2.032000X1.016000*%
%TD*%
%TA.AperFunction,SMDPad,CuDef*%
%ADD18C,1.143000*%
%TD*%
%TA.AperFunction,SMDPad,CuDef*%
%ADD19RoundRect,0.250000X0.337500X0.475000X-0.337500X0.475000X-0.337500X-0.475000X0.337500X-0.475000X0*%
%TD*%
%TA.AperFunction,ComponentPad*%
%ADD20R,1.800000X1.800000*%
%TD*%
%TA.AperFunction,ComponentPad*%
%ADD21C,1.800000*%
%TD*%
%TA.AperFunction,SMDPad,CuDef*%
%ADD22RoundRect,0.237500X-0.300000X-0.237500X0.300000X-0.237500X0.300000X0.237500X-0.300000X0.237500X0*%
%TD*%
%TA.AperFunction,ViaPad*%
%ADD23C,0.600000*%
%TD*%
%TA.AperFunction,Conductor*%
%ADD24C,1.000000*%
%TD*%
G04 APERTURE END LIST*
D10*
%TO.N,Net-(U101-PA10_A2_D2)*%
X172000000Y-96000000D02*
X172000000Y-98000000D01*
X172000000Y-94000000D02*
X172000000Y-96000000D01*
%TD*%
D11*
%TO.P,U103,1,1*%
%TO.N,Net-(U101-PB09_A7_D7_RX)*%
X139192000Y-106680000D03*
%TO.P,U103,2,2*%
%TO.N,Net-(U101-PA7_A8_D8_SCK)*%
X141732000Y-106680000D03*
%TO.P,U103,4,4*%
%TO.N,Net-(U101-PA5_A9_D9_MISO)*%
X144272000Y-106680000D03*
%TO.P,U103,8,8*%
%TO.N,Net-(U101-PA6_A10_D10_MOSI)*%
X146812000Y-106680000D03*
%TO.P,U103,C,C*%
%TO.N,GND*%
X141732000Y-114300000D03*
%TD*%
D12*
%TO.P,SW101,1,1*%
%TO.N,GND*%
X151210000Y-99060000D03*
%TO.P,SW101,2,2*%
%TO.N,Net-(U101-PA10_A2_D2)*%
X156210000Y-99060000D03*
%TD*%
D13*
%TO.P,R101,1*%
%TO.N,Net-(D101-A)*%
X133644000Y-103748000D03*
%TO.P,R101,2*%
%TO.N,Net-(U101-PA02_A0_D0)*%
X133644000Y-101923000D03*
%TD*%
D14*
%TO.P,J101,1,Pin_1*%
%TO.N,GND*%
X152409200Y-110215000D03*
D15*
%TO.P,J101,2,Pin_2*%
%TO.N,Net-(J101-Pin_2)*%
X154909200Y-110215000D03*
%TD*%
D16*
%TO.P,U101,1,PA02_A0_D0*%
%TO.N,Net-(U101-PA02_A0_D0)*%
X177332000Y-98240000D03*
%TO.P,U101,2,PA4_A1_D1*%
%TO.N,unconnected-(U101-PA4_A1_D1-Pad2)*%
X174792000Y-98240000D03*
%TO.P,U101,3,PA10_A2_D2*%
%TO.N,Net-(U101-PA10_A2_D2)*%
X172252000Y-98240000D03*
%TO.P,U101,4,PA11_A3_D3*%
%TO.N,Net-(U101-PA11_A3_D3)*%
X169712000Y-98240000D03*
%TO.P,U101,5,PA8_A4_D4_SDA*%
%TO.N,Net-(U101-PA8_A4_D4_SDA)*%
X167172000Y-98240000D03*
%TO.P,U101,6,PA9_A5_D5_SCL*%
%TO.N,Net-(U101-PA9_A5_D5_SCL)*%
X164632000Y-98240000D03*
%TO.P,U101,7,PB08_A6_D6_TX*%
%TO.N,Net-(U101-PB08_A6_D6_TX)*%
X162092000Y-98240000D03*
%TO.P,U101,8,PB09_A7_D7_RX*%
%TO.N,Net-(U101-PB09_A7_D7_RX)*%
X162092000Y-114404560D03*
%TO.P,U101,9,PA7_A8_D8_SCK*%
%TO.N,Net-(U101-PA7_A8_D8_SCK)*%
X164632000Y-114404560D03*
%TO.P,U101,10,PA5_A9_D9_MISO*%
%TO.N,Net-(U101-PA5_A9_D9_MISO)*%
X167172000Y-114404560D03*
%TO.P,U101,11,PA6_A10_D10_MOSI*%
%TO.N,Net-(U101-PA6_A10_D10_MOSI)*%
X169712000Y-114404560D03*
%TO.P,U101,12,3V3*%
%TO.N,Net-(J101-Pin_2)*%
X172252000Y-114404560D03*
%TO.P,U101,13,GND*%
%TO.N,GND*%
X174792000Y-114404560D03*
%TO.P,U101,14,5V*%
%TO.N,unconnected-(U101-5V-Pad14)*%
X177332000Y-114404560D03*
D17*
%TO.P,U101,15,5V*%
%TO.N,unconnected-(U101-5V-Pad15)*%
X161014180Y-105106880D03*
%TO.P,U101,16,GND*%
%TO.N,unconnected-(U101-GND-Pad16)*%
X161014180Y-107656880D03*
D18*
%TO.P,U101,17,PA31_SWDIO*%
%TO.N,unconnected-(U101-PA31_SWDIO-Pad17)*%
X178018367Y-105105683D03*
%TO.P,U101,18,PA30_SWCLK*%
%TO.N,unconnected-(U101-PA30_SWCLK-Pad18)*%
X178018367Y-107645683D03*
%TO.P,U101,19,RESET*%
%TO.N,unconnected-(U101-RESET-Pad19)*%
X175478367Y-105105683D03*
%TO.P,U101,20,GND*%
%TO.N,unconnected-(U101-GND-Pad20)*%
X175478367Y-107645683D03*
%TD*%
D19*
%TO.P,C102,1*%
%TO.N,Net-(J101-Pin_2)*%
X172106500Y-117729000D03*
%TO.P,C102,2*%
%TO.N,GND*%
X170031500Y-117729000D03*
%TD*%
D11*
%TO.P,U102,1,1*%
%TO.N,Net-(U101-PA11_A3_D3)*%
X139192000Y-95885000D03*
%TO.P,U102,2,2*%
%TO.N,Net-(U101-PA8_A4_D4_SDA)*%
X141732000Y-95885000D03*
%TO.P,U102,4,4*%
%TO.N,Net-(U101-PA9_A5_D5_SCL)*%
X144272000Y-95885000D03*
%TO.P,U102,8,8*%
%TO.N,Net-(U101-PB08_A6_D6_TX)*%
X146812000Y-95885000D03*
%TO.P,U102,C,C*%
%TO.N,GND*%
X141732000Y-103505000D03*
%TD*%
D20*
%TO.P,D101,1,K*%
%TO.N,GND*%
X129580000Y-105860000D03*
D21*
%TO.P,D101,2,A*%
%TO.N,Net-(D101-A)*%
X129580000Y-108400000D03*
%TD*%
D22*
%TO.P,C101,1*%
%TO.N,Net-(U101-PA10_A2_D2)*%
X171857500Y-93922000D03*
%TO.P,C101,2*%
%TO.N,GND*%
X173582500Y-93922000D03*
%TD*%
D23*
%TO.N,Net-(U101-PA10_A2_D2)*%
X172212000Y-98298000D03*
%TO.N,Net-(J101-Pin_2)*%
X172085000Y-117729000D03*
%TO.N,Net-(D101-A)*%
X133604000Y-103759000D03*
%TO.N,Net-(U101-PA02_A0_D0)*%
X177292000Y-98298000D03*
X133604000Y-101981000D03*
%TO.N,Net-(U101-PA6_A10_D10_MOSI)*%
X169722800Y-114300000D03*
%TD*%
D24*
%TO.N,Net-(J101-Pin_2)*%
X172085000Y-114571560D02*
X172252000Y-114404560D01*
X172085000Y-117729000D02*
X172085000Y-114571560D01*
D10*
%TO.N,Net-(U101-PA11_A3_D3)*%
X139192000Y-95885000D02*
X139192000Y-94488000D01*
X169712000Y-94147000D02*
X169712000Y-98240000D01*
X139192000Y-94488000D02*
X140970000Y-92710000D01*
X168275000Y-92710000D02*
X169712000Y-94147000D01*
X140970000Y-92710000D02*
X168275000Y-92710000D01*
%TO.N,Net-(U101-PB08_A6_D6_TX)*%
X162092000Y-98240000D02*
X162092000Y-95798000D01*
X148241600Y-94615000D02*
X146812000Y-95885000D01*
X161290000Y-94615000D02*
X148241600Y-94615000D01*
X162092000Y-95798000D02*
X161290000Y-94615000D01*
%TO.N,Net-(U101-PA8_A4_D4_SDA)*%
X165100000Y-93345000D02*
X167172000Y-95417000D01*
X141732000Y-95885000D02*
X141732000Y-94488000D01*
X142875000Y-93345000D02*
X165100000Y-93345000D01*
X141732000Y-94488000D02*
X142875000Y-93345000D01*
X167172000Y-95417000D02*
X167172000Y-98240000D01*
%TO.N,Net-(U101-PA9_A5_D5_SCL)*%
X164632000Y-98240000D02*
X164632000Y-95417000D01*
X163195000Y-93980000D02*
X146177000Y-93980000D01*
X146177000Y-93980000D02*
X144272000Y-95885000D01*
X164632000Y-95417000D02*
X163195000Y-93980000D01*
%TO.N,Net-(U101-PA7_A8_D8_SCK)*%
X157480000Y-113665000D02*
X151130000Y-113665000D01*
X164632000Y-114404560D02*
X164632000Y-112562000D01*
X147320000Y-109855000D02*
X142240000Y-109855000D01*
X159385000Y-111760000D02*
X157480000Y-113665000D01*
X151130000Y-113665000D02*
X147320000Y-109855000D01*
X164632000Y-112562000D02*
X163830000Y-111760000D01*
X163830000Y-111760000D02*
X159385000Y-111760000D01*
X141732000Y-109347000D02*
X141732000Y-106680000D01*
X142240000Y-109855000D02*
X141732000Y-109347000D01*
%TO.N,Net-(U101-PA5_A9_D9_MISO)*%
X144780000Y-109220000D02*
X144272000Y-108712000D01*
X167172000Y-114404560D02*
X167172000Y-112562000D01*
X165735000Y-111125000D02*
X158750000Y-111125000D01*
X158750000Y-111125000D02*
X156845000Y-113030000D01*
X167172000Y-112562000D02*
X165735000Y-111125000D01*
X156845000Y-113030000D02*
X151765000Y-113030000D01*
X147955000Y-109220000D02*
X144780000Y-109220000D01*
X151765000Y-113030000D02*
X147955000Y-109220000D01*
X144272000Y-108712000D02*
X144272000Y-106680000D01*
%TO.N,Net-(U101-PB09_A7_D7_RX)*%
X150599560Y-114404560D02*
X162092000Y-114404560D01*
X146685000Y-110490000D02*
X150599560Y-114404560D01*
X139192000Y-109982000D02*
X139700000Y-110490000D01*
X139700000Y-110490000D02*
X146685000Y-110490000D01*
X139192000Y-106680000D02*
X139192000Y-109982000D01*
%TD*%
%TA.AperFunction,Conductor*%
%TO.N,GND*%
G36*
X186482539Y-91140185D02*
G01*
X186528294Y-91192989D01*
X186539500Y-91244500D01*
X186539500Y-119995500D01*
X186519815Y-120062539D01*
X186467011Y-120108294D01*
X186415500Y-120119500D01*
X127664500Y-120119500D01*
X127597461Y-120099815D01*
X127551706Y-120047011D01*
X127540500Y-119995500D01*
X127540500Y-118253986D01*
X168944001Y-118253986D01*
X168954494Y-118356697D01*
X169009641Y-118523119D01*
X169009643Y-118523124D01*
X169101684Y-118672345D01*
X169225654Y-118796315D01*
X169374875Y-118888356D01*
X169374880Y-118888358D01*
X169541302Y-118943505D01*
X169541309Y-118943506D01*
X169644019Y-118953999D01*
X169781499Y-118953999D01*
X169781500Y-118953998D01*
X169781500Y-117979000D01*
X168944001Y-117979000D01*
X168944001Y-118253986D01*
X127540500Y-118253986D01*
X127540500Y-115894038D01*
X130519500Y-115894038D01*
X130519500Y-116145961D01*
X130558910Y-116394785D01*
X130636760Y-116634383D01*
X130751132Y-116858848D01*
X130899201Y-117062649D01*
X130899205Y-117062654D01*
X131077345Y-117240794D01*
X131077350Y-117240798D01*
X131255117Y-117369952D01*
X131281155Y-117388870D01*
X131424184Y-117461747D01*
X131505616Y-117503239D01*
X131505618Y-117503239D01*
X131505621Y-117503241D01*
X131745215Y-117581090D01*
X131994038Y-117620500D01*
X131994039Y-117620500D01*
X132245961Y-117620500D01*
X132245962Y-117620500D01*
X132494785Y-117581090D01*
X132734379Y-117503241D01*
X132958845Y-117388870D01*
X133162656Y-117240793D01*
X133199436Y-117204013D01*
X168944000Y-117204013D01*
X168944000Y-117479000D01*
X169781500Y-117479000D01*
X169781500Y-116504000D01*
X169644027Y-116504000D01*
X169644012Y-116504001D01*
X169541302Y-116514494D01*
X169374880Y-116569641D01*
X169374875Y-116569643D01*
X169225654Y-116661684D01*
X169101684Y-116785654D01*
X169009643Y-116934875D01*
X169009641Y-116934880D01*
X168954494Y-117101302D01*
X168954493Y-117101309D01*
X168944000Y-117204013D01*
X133199436Y-117204013D01*
X133340793Y-117062656D01*
X133488870Y-116858845D01*
X133603241Y-116634379D01*
X133681090Y-116394785D01*
X133720500Y-116145962D01*
X133720500Y-115894038D01*
X133681090Y-115645215D01*
X133603241Y-115405621D01*
X133603239Y-115405618D01*
X133603239Y-115405616D01*
X133561747Y-115324184D01*
X133488870Y-115181155D01*
X133400179Y-115059082D01*
X133340798Y-114977350D01*
X133340794Y-114977345D01*
X133162654Y-114799205D01*
X133162649Y-114799201D01*
X132958848Y-114651132D01*
X132958847Y-114651131D01*
X132958845Y-114651130D01*
X132888747Y-114615413D01*
X132734383Y-114536760D01*
X132494785Y-114458910D01*
X132466272Y-114454394D01*
X132245962Y-114419500D01*
X131994038Y-114419500D01*
X131869626Y-114439205D01*
X131745214Y-114458910D01*
X131505616Y-114536760D01*
X131281151Y-114651132D01*
X131077350Y-114799201D01*
X131077345Y-114799205D01*
X130899205Y-114977345D01*
X130899201Y-114977350D01*
X130751132Y-115181151D01*
X130636760Y-115405616D01*
X130558910Y-115645214D01*
X130519500Y-115894038D01*
X127540500Y-115894038D01*
X127540500Y-114299997D01*
X140427034Y-114299997D01*
X140427034Y-114300002D01*
X140446858Y-114526599D01*
X140446860Y-114526610D01*
X140505730Y-114746317D01*
X140505735Y-114746331D01*
X140601863Y-114952478D01*
X140652974Y-115025472D01*
X141332000Y-114346446D01*
X141332000Y-114352661D01*
X141359259Y-114454394D01*
X141411920Y-114545606D01*
X141486394Y-114620080D01*
X141577606Y-114672741D01*
X141679339Y-114700000D01*
X141685553Y-114700000D01*
X141006526Y-115379025D01*
X141079513Y-115430132D01*
X141079521Y-115430136D01*
X141285668Y-115526264D01*
X141285682Y-115526269D01*
X141505389Y-115585139D01*
X141505400Y-115585141D01*
X141731998Y-115604966D01*
X141732002Y-115604966D01*
X141958599Y-115585141D01*
X141958610Y-115585139D01*
X142178317Y-115526269D01*
X142178331Y-115526264D01*
X142384478Y-115430136D01*
X142457471Y-115379024D01*
X141778447Y-114700000D01*
X141784661Y-114700000D01*
X141886394Y-114672741D01*
X141977606Y-114620080D01*
X142052080Y-114545606D01*
X142104741Y-114454394D01*
X142132000Y-114352661D01*
X142132000Y-114346447D01*
X142811024Y-115025471D01*
X142862136Y-114952478D01*
X142958264Y-114746331D01*
X142958269Y-114746317D01*
X143017139Y-114526610D01*
X143017141Y-114526599D01*
X143036966Y-114300002D01*
X143036966Y-114299997D01*
X143017141Y-114073400D01*
X143017139Y-114073389D01*
X142958269Y-113853682D01*
X142958264Y-113853668D01*
X142862136Y-113647521D01*
X142862132Y-113647513D01*
X142811025Y-113574526D01*
X142132000Y-114253551D01*
X142132000Y-114247339D01*
X142104741Y-114145606D01*
X142052080Y-114054394D01*
X141977606Y-113979920D01*
X141886394Y-113927259D01*
X141784661Y-113900000D01*
X141778448Y-113900000D01*
X142457472Y-113220974D01*
X142384478Y-113169863D01*
X142178331Y-113073735D01*
X142178317Y-113073730D01*
X141958610Y-113014860D01*
X141958599Y-113014858D01*
X141732002Y-112995034D01*
X141731998Y-112995034D01*
X141505400Y-113014858D01*
X141505389Y-113014860D01*
X141285682Y-113073730D01*
X141285673Y-113073734D01*
X141079516Y-113169866D01*
X141079512Y-113169868D01*
X141006526Y-113220973D01*
X141006526Y-113220974D01*
X141685553Y-113900000D01*
X141679339Y-113900000D01*
X141577606Y-113927259D01*
X141486394Y-113979920D01*
X141411920Y-114054394D01*
X141359259Y-114145606D01*
X141332000Y-114247339D01*
X141332000Y-114253552D01*
X140652974Y-113574526D01*
X140652973Y-113574526D01*
X140601868Y-113647512D01*
X140601866Y-113647516D01*
X140505734Y-113853673D01*
X140505730Y-113853682D01*
X140446860Y-114073389D01*
X140446858Y-114073400D01*
X140427034Y-114299997D01*
X127540500Y-114299997D01*
X127540500Y-104912155D01*
X128180000Y-104912155D01*
X128180000Y-105610000D01*
X129204722Y-105610000D01*
X129160667Y-105686306D01*
X129130000Y-105800756D01*
X129130000Y-105919244D01*
X129160667Y-106033694D01*
X129204722Y-106110000D01*
X128180000Y-106110000D01*
X128180000Y-106807844D01*
X128186401Y-106867372D01*
X128186403Y-106867379D01*
X128236645Y-107002086D01*
X128236649Y-107002093D01*
X128322809Y-107117187D01*
X128322812Y-107117190D01*
X128437906Y-107203350D01*
X128437913Y-107203354D01*
X128572620Y-107253596D01*
X128572627Y-107253598D01*
X128632155Y-107259999D01*
X128632172Y-107260000D01*
X128894859Y-107260000D01*
X128961898Y-107279685D01*
X129007653Y-107332489D01*
X129017597Y-107401647D01*
X128988572Y-107465203D01*
X128960136Y-107489427D01*
X128913960Y-107518017D01*
X128913958Y-107518019D01*
X128763237Y-107655418D01*
X128640327Y-107818178D01*
X128549422Y-108000739D01*
X128549417Y-108000752D01*
X128493602Y-108196917D01*
X128474785Y-108399999D01*
X128474785Y-108400000D01*
X128493602Y-108603082D01*
X128549417Y-108799247D01*
X128549422Y-108799260D01*
X128640327Y-108981821D01*
X128763237Y-109144581D01*
X128913958Y-109281980D01*
X128913960Y-109281982D01*
X128962929Y-109312302D01*
X129087363Y-109389348D01*
X129277544Y-109463024D01*
X129478024Y-109500500D01*
X129478026Y-109500500D01*
X129681974Y-109500500D01*
X129681976Y-109500500D01*
X129882456Y-109463024D01*
X130072637Y-109389348D01*
X130246041Y-109281981D01*
X130395337Y-109145880D01*
X130396762Y-109144581D01*
X130404709Y-109134058D01*
X130519673Y-108981821D01*
X130610582Y-108799250D01*
X130666397Y-108603083D01*
X130685215Y-108400000D01*
X130666397Y-108196917D01*
X130610582Y-108000750D01*
X130519673Y-107818179D01*
X130396764Y-107655421D01*
X130396762Y-107655418D01*
X130246041Y-107518019D01*
X130246039Y-107518017D01*
X130199864Y-107489427D01*
X130153228Y-107437399D01*
X130142124Y-107368417D01*
X130170077Y-107304383D01*
X130228212Y-107265627D01*
X130265141Y-107260000D01*
X130527828Y-107260000D01*
X130527844Y-107259999D01*
X130587372Y-107253598D01*
X130587379Y-107253596D01*
X130722086Y-107203354D01*
X130722093Y-107203350D01*
X130837187Y-107117190D01*
X130837190Y-107117187D01*
X130923350Y-107002093D01*
X130923354Y-107002086D01*
X130973596Y-106867379D01*
X130973598Y-106867372D01*
X130979999Y-106807844D01*
X130980000Y-106807827D01*
X130980000Y-106680000D01*
X138186659Y-106680000D01*
X138205975Y-106876129D01*
X138209660Y-106888276D01*
X138255166Y-107038290D01*
X138263188Y-107064733D01*
X138356086Y-107238532D01*
X138356090Y-107238539D01*
X138481116Y-107390883D01*
X138633460Y-107515909D01*
X138633467Y-107515913D01*
X138807273Y-107608814D01*
X138812897Y-107611144D01*
X138812020Y-107613260D01*
X138861917Y-107645945D01*
X138890387Y-107709751D01*
X138891500Y-107726328D01*
X138891500Y-110021562D01*
X138896211Y-110039142D01*
X138911979Y-110097990D01*
X138936857Y-110141078D01*
X138936858Y-110141082D01*
X138936859Y-110141082D01*
X138951540Y-110166511D01*
X139459540Y-110674511D01*
X139515489Y-110730460D01*
X139515491Y-110730461D01*
X139515495Y-110730464D01*
X139584004Y-110770017D01*
X139584011Y-110770021D01*
X139660438Y-110790500D01*
X146509167Y-110790500D01*
X146576206Y-110810185D01*
X146596848Y-110826819D01*
X150359100Y-114589071D01*
X150415049Y-114645020D01*
X150415051Y-114645021D01*
X150415055Y-114645024D01*
X150463063Y-114672741D01*
X150483571Y-114684581D01*
X150559998Y-114705060D01*
X150639122Y-114705060D01*
X160768010Y-114705060D01*
X160835049Y-114724745D01*
X160880804Y-114777549D01*
X160892010Y-114829060D01*
X160892010Y-114873656D01*
X160921556Y-115060208D01*
X160979926Y-115239850D01*
X161050840Y-115379025D01*
X161065676Y-115408142D01*
X161176699Y-115560951D01*
X161310259Y-115694511D01*
X161463068Y-115805534D01*
X161542580Y-115846047D01*
X161631359Y-115891283D01*
X161631361Y-115891283D01*
X161631364Y-115891285D01*
X161727654Y-115922571D01*
X161811001Y-115949653D01*
X161997554Y-115979200D01*
X161997559Y-115979200D01*
X162186446Y-115979200D01*
X162372998Y-115949653D01*
X162433037Y-115930145D01*
X162552636Y-115891285D01*
X162720932Y-115805534D01*
X162873741Y-115694511D01*
X163007301Y-115560951D01*
X163118324Y-115408142D01*
X163204075Y-115239846D01*
X163244069Y-115116756D01*
X163283507Y-115059082D01*
X163347866Y-115031884D01*
X163416712Y-115043799D01*
X163468188Y-115091043D01*
X163479931Y-115116757D01*
X163519926Y-115239850D01*
X163590840Y-115379025D01*
X163605676Y-115408142D01*
X163716699Y-115560951D01*
X163850259Y-115694511D01*
X164003068Y-115805534D01*
X164082580Y-115846047D01*
X164171359Y-115891283D01*
X164171361Y-115891283D01*
X164171364Y-115891285D01*
X164267654Y-115922571D01*
X164351001Y-115949653D01*
X164537554Y-115979200D01*
X164537559Y-115979200D01*
X164726446Y-115979200D01*
X164912998Y-115949653D01*
X164973037Y-115930145D01*
X165092636Y-115891285D01*
X165260932Y-115805534D01*
X165413741Y-115694511D01*
X165547301Y-115560951D01*
X165658324Y-115408142D01*
X165744075Y-115239846D01*
X165784069Y-115116756D01*
X165823507Y-115059082D01*
X165887866Y-115031884D01*
X165956712Y-115043799D01*
X166008188Y-115091043D01*
X166019931Y-115116757D01*
X166059926Y-115239850D01*
X166130840Y-115379025D01*
X166145676Y-115408142D01*
X166256699Y-115560951D01*
X166390259Y-115694511D01*
X166543068Y-115805534D01*
X166622580Y-115846047D01*
X166711359Y-115891283D01*
X166711361Y-115891283D01*
X166711364Y-115891285D01*
X166807654Y-115922571D01*
X166891001Y-115949653D01*
X167077554Y-115979200D01*
X167077559Y-115979200D01*
X167266446Y-115979200D01*
X167452998Y-115949653D01*
X167513037Y-115930145D01*
X167632636Y-115891285D01*
X167800932Y-115805534D01*
X167953741Y-115694511D01*
X168087301Y-115560951D01*
X168198324Y-115408142D01*
X168284075Y-115239846D01*
X168324069Y-115116756D01*
X168363507Y-115059082D01*
X168427866Y-115031884D01*
X168496712Y-115043799D01*
X168548188Y-115091043D01*
X168559931Y-115116757D01*
X168599926Y-115239850D01*
X168670840Y-115379025D01*
X168685676Y-115408142D01*
X168796699Y-115560951D01*
X168930259Y-115694511D01*
X169083068Y-115805534D01*
X169162580Y-115846047D01*
X169251359Y-115891283D01*
X169251361Y-115891283D01*
X169251364Y-115891285D01*
X169347654Y-115922571D01*
X169431001Y-115949653D01*
X169617554Y-115979200D01*
X169617559Y-115979200D01*
X169806446Y-115979200D01*
X169992998Y-115949653D01*
X170053037Y-115930145D01*
X170172636Y-115891285D01*
X170340932Y-115805534D01*
X170493741Y-115694511D01*
X170627301Y-115560951D01*
X170738324Y-115408142D01*
X170824075Y-115239846D01*
X170864069Y-115116756D01*
X170903507Y-115059082D01*
X170967866Y-115031884D01*
X171036712Y-115043799D01*
X171088188Y-115091043D01*
X171099931Y-115116757D01*
X171139926Y-115239850D01*
X171225676Y-115408142D01*
X171336700Y-115560952D01*
X171348181Y-115572433D01*
X171381666Y-115633756D01*
X171384500Y-115660114D01*
X171384500Y-116975752D01*
X171370132Y-117033691D01*
X171366205Y-117041120D01*
X171343841Y-117105032D01*
X171303119Y-117161808D01*
X171238165Y-117187554D01*
X171169604Y-117174097D01*
X171119202Y-117125709D01*
X171109094Y-117103080D01*
X171053358Y-116934880D01*
X171053356Y-116934875D01*
X170961315Y-116785654D01*
X170837345Y-116661684D01*
X170688124Y-116569643D01*
X170688119Y-116569641D01*
X170521697Y-116514494D01*
X170521690Y-116514493D01*
X170418986Y-116504000D01*
X170281500Y-116504000D01*
X170281500Y-118953999D01*
X170418972Y-118953999D01*
X170418986Y-118953998D01*
X170521697Y-118943505D01*
X170688119Y-118888358D01*
X170688124Y-118888356D01*
X170837345Y-118796315D01*
X170961315Y-118672345D01*
X171053356Y-118523124D01*
X171053359Y-118523117D01*
X171109094Y-118354918D01*
X171148866Y-118297473D01*
X171213382Y-118270649D01*
X171282158Y-118282964D01*
X171333358Y-118330506D01*
X171343841Y-118352965D01*
X171345147Y-118356697D01*
X171366207Y-118416882D01*
X171446850Y-118526150D01*
X171556118Y-118606793D01*
X171598845Y-118621744D01*
X171684299Y-118651646D01*
X171714730Y-118654500D01*
X171714734Y-118654500D01*
X172498270Y-118654500D01*
X172528699Y-118651646D01*
X172528701Y-118651646D01*
X172592790Y-118629219D01*
X172656882Y-118606793D01*
X172766150Y-118526150D01*
X172846793Y-118416882D01*
X172888576Y-118297473D01*
X172891646Y-118288701D01*
X172891646Y-118288699D01*
X172894500Y-118258269D01*
X172894500Y-117199730D01*
X172891646Y-117169303D01*
X172891646Y-117169301D01*
X172846793Y-117041118D01*
X172828500Y-117016331D01*
X172809729Y-116990896D01*
X172785759Y-116925267D01*
X172785500Y-116917264D01*
X172785500Y-115930145D01*
X172805185Y-115863106D01*
X172853206Y-115819660D01*
X172880932Y-115805534D01*
X173033741Y-115694511D01*
X173167301Y-115560951D01*
X173248270Y-115449507D01*
X173303598Y-115406844D01*
X173373211Y-115400865D01*
X173435006Y-115433471D01*
X173459071Y-115466100D01*
X173509521Y-115565114D01*
X173648255Y-115756063D01*
X173648255Y-115756064D01*
X173815145Y-115922954D01*
X174006095Y-116061688D01*
X174216391Y-116168840D01*
X174440864Y-116241776D01*
X174440870Y-116241778D01*
X174542000Y-116257795D01*
X174542000Y-116257794D01*
X175042000Y-116257794D01*
X175143129Y-116241778D01*
X175143135Y-116241776D01*
X175367608Y-116168840D01*
X175577904Y-116061688D01*
X175768853Y-115922954D01*
X175768854Y-115922954D01*
X175935744Y-115756064D01*
X175935744Y-115756063D01*
X176074480Y-115565112D01*
X176124928Y-115466101D01*
X176172902Y-115415305D01*
X176240723Y-115398509D01*
X176306858Y-115421046D01*
X176335731Y-115449509D01*
X176416699Y-115560951D01*
X176550259Y-115694511D01*
X176703068Y-115805534D01*
X176782580Y-115846047D01*
X176871359Y-115891283D01*
X176871361Y-115891283D01*
X176871364Y-115891285D01*
X176967654Y-115922571D01*
X177051001Y-115949653D01*
X177237554Y-115979200D01*
X177237559Y-115979200D01*
X177426446Y-115979200D01*
X177612998Y-115949653D01*
X177673037Y-115930145D01*
X177784163Y-115894038D01*
X181319500Y-115894038D01*
X181319500Y-116145961D01*
X181358910Y-116394785D01*
X181436760Y-116634383D01*
X181551132Y-116858848D01*
X181699201Y-117062649D01*
X181699205Y-117062654D01*
X181877345Y-117240794D01*
X181877350Y-117240798D01*
X182055117Y-117369952D01*
X182081155Y-117388870D01*
X182224184Y-117461747D01*
X182305616Y-117503239D01*
X182305618Y-117503239D01*
X182305621Y-117503241D01*
X182545215Y-117581090D01*
X182794038Y-117620500D01*
X182794039Y-117620500D01*
X183045961Y-117620500D01*
X183045962Y-117620500D01*
X183294785Y-117581090D01*
X183534379Y-117503241D01*
X183758845Y-117388870D01*
X183962656Y-117240793D01*
X184140793Y-117062656D01*
X184288870Y-116858845D01*
X184403241Y-116634379D01*
X184481090Y-116394785D01*
X184520500Y-116145962D01*
X184520500Y-115894038D01*
X184481090Y-115645215D01*
X184403241Y-115405621D01*
X184403239Y-115405618D01*
X184403239Y-115405616D01*
X184361747Y-115324184D01*
X184288870Y-115181155D01*
X184200179Y-115059082D01*
X184140798Y-114977350D01*
X184140794Y-114977345D01*
X183962654Y-114799205D01*
X183962649Y-114799201D01*
X183758848Y-114651132D01*
X183758847Y-114651131D01*
X183758845Y-114651130D01*
X183688747Y-114615413D01*
X183534383Y-114536760D01*
X183294785Y-114458910D01*
X183266272Y-114454394D01*
X183045962Y-114419500D01*
X182794038Y-114419500D01*
X182669626Y-114439205D01*
X182545214Y-114458910D01*
X182305616Y-114536760D01*
X182081151Y-114651132D01*
X181877350Y-114799201D01*
X181877345Y-114799205D01*
X181699205Y-114977345D01*
X181699201Y-114977350D01*
X181551132Y-115181151D01*
X181436760Y-115405616D01*
X181358910Y-115645214D01*
X181319500Y-115894038D01*
X177784163Y-115894038D01*
X177792636Y-115891285D01*
X177960932Y-115805534D01*
X178113741Y-115694511D01*
X178247301Y-115560951D01*
X178358324Y-115408142D01*
X178444075Y-115239846D01*
X178502443Y-115060208D01*
X178515567Y-114977344D01*
X178531990Y-114873656D01*
X178531990Y-113935463D01*
X178502443Y-113748911D01*
X178444073Y-113569269D01*
X178398837Y-113480490D01*
X178358324Y-113400978D01*
X178247301Y-113248169D01*
X178113741Y-113114609D01*
X177960932Y-113003586D01*
X177944148Y-112995034D01*
X177792640Y-112917836D01*
X177612998Y-112859466D01*
X177426446Y-112829920D01*
X177426441Y-112829920D01*
X177237559Y-112829920D01*
X177237554Y-112829920D01*
X177051001Y-112859466D01*
X176871359Y-112917836D01*
X176703067Y-113003586D01*
X176550257Y-113114610D01*
X176416698Y-113248169D01*
X176335730Y-113359611D01*
X176280400Y-113402276D01*
X176210786Y-113408254D01*
X176148992Y-113375647D01*
X176124928Y-113343018D01*
X176074480Y-113244007D01*
X175935744Y-113053056D01*
X175935744Y-113053055D01*
X175768854Y-112886165D01*
X175577904Y-112747431D01*
X175367606Y-112640279D01*
X175143127Y-112567341D01*
X175042000Y-112551323D01*
X175042000Y-116257794D01*
X174542000Y-116257794D01*
X174542000Y-112551323D01*
X174440872Y-112567341D01*
X174216393Y-112640279D01*
X174006095Y-112747431D01*
X173815146Y-112886165D01*
X173815145Y-112886165D01*
X173648255Y-113053055D01*
X173648255Y-113053056D01*
X173509521Y-113244005D01*
X173459071Y-113343019D01*
X173411096Y-113393815D01*
X173343275Y-113410610D01*
X173277140Y-113388072D01*
X173248268Y-113359610D01*
X173227118Y-113330500D01*
X173167301Y-113248169D01*
X173033741Y-113114609D01*
X172880932Y-113003586D01*
X172864148Y-112995034D01*
X172712640Y-112917836D01*
X172532998Y-112859466D01*
X172346446Y-112829920D01*
X172346441Y-112829920D01*
X172157559Y-112829920D01*
X172157554Y-112829920D01*
X171971001Y-112859466D01*
X171791359Y-112917836D01*
X171623067Y-113003586D01*
X171470257Y-113114610D01*
X171336700Y-113248167D01*
X171225676Y-113400977D01*
X171139926Y-113569269D01*
X171099931Y-113692362D01*
X171060493Y-113750037D01*
X170996134Y-113777235D01*
X170927288Y-113765320D01*
X170875812Y-113718076D01*
X170864069Y-113692362D01*
X170824073Y-113569269D01*
X170778837Y-113480490D01*
X170738324Y-113400978D01*
X170627301Y-113248169D01*
X170493741Y-113114609D01*
X170340932Y-113003586D01*
X170324148Y-112995034D01*
X170172640Y-112917836D01*
X169992998Y-112859466D01*
X169806446Y-112829920D01*
X169806441Y-112829920D01*
X169617559Y-112829920D01*
X169617554Y-112829920D01*
X169431001Y-112859466D01*
X169251359Y-112917836D01*
X169083067Y-113003586D01*
X168930257Y-113114610D01*
X168796700Y-113248167D01*
X168685676Y-113400977D01*
X168599926Y-113569269D01*
X168559931Y-113692362D01*
X168520493Y-113750037D01*
X168456134Y-113777235D01*
X168387288Y-113765320D01*
X168335812Y-113718076D01*
X168324069Y-113692362D01*
X168284073Y-113569269D01*
X168238837Y-113480490D01*
X168198324Y-113400978D01*
X168087301Y-113248169D01*
X167953741Y-113114609D01*
X167800932Y-113003586D01*
X167784148Y-112995034D01*
X167632640Y-112917836D01*
X167588216Y-112903402D01*
X167558180Y-112893642D01*
X167500506Y-112854205D01*
X167473308Y-112789846D01*
X167472500Y-112775712D01*
X167472500Y-112522439D01*
X167452020Y-112446009D01*
X167452017Y-112446004D01*
X167412464Y-112377495D01*
X167412458Y-112377487D01*
X165919510Y-110884539D01*
X165900508Y-110873569D01*
X165881506Y-110862598D01*
X165881505Y-110862597D01*
X165850994Y-110844981D01*
X165850993Y-110844980D01*
X165841960Y-110842559D01*
X165774562Y-110824500D01*
X158710438Y-110824500D01*
X158663663Y-110837033D01*
X158634006Y-110844980D01*
X158634005Y-110844981D01*
X158603495Y-110862597D01*
X158603494Y-110862598D01*
X158592202Y-110869117D01*
X158565489Y-110884539D01*
X158565487Y-110884541D01*
X156756848Y-112693181D01*
X156695525Y-112726666D01*
X156669167Y-112729500D01*
X151940833Y-112729500D01*
X151873794Y-112709815D01*
X151853152Y-112693181D01*
X148574984Y-109415013D01*
X151059200Y-109415013D01*
X151059200Y-109965000D01*
X151976188Y-109965000D01*
X151943275Y-110022007D01*
X151909200Y-110149174D01*
X151909200Y-110280826D01*
X151943275Y-110407993D01*
X151976188Y-110465000D01*
X151059201Y-110465000D01*
X151059201Y-111014986D01*
X151069694Y-111117697D01*
X151124841Y-111284119D01*
X151124843Y-111284124D01*
X151216884Y-111433345D01*
X151340854Y-111557315D01*
X151490075Y-111649356D01*
X151490080Y-111649358D01*
X151656502Y-111704505D01*
X151656509Y-111704506D01*
X151759219Y-111714999D01*
X152159199Y-111714999D01*
X152159200Y-111714998D01*
X152159200Y-110648012D01*
X152216207Y-110680925D01*
X152343374Y-110715000D01*
X152475026Y-110715000D01*
X152602193Y-110680925D01*
X152659200Y-110648012D01*
X152659200Y-111714999D01*
X153059172Y-111714999D01*
X153059186Y-111714998D01*
X153161897Y-111704505D01*
X153328319Y-111649358D01*
X153328324Y-111649356D01*
X153477545Y-111557315D01*
X153601515Y-111433345D01*
X153693556Y-111284124D01*
X153693558Y-111284119D01*
X153748705Y-111117697D01*
X153748706Y-111117690D01*
X153759199Y-111014986D01*
X153759199Y-110943528D01*
X153778883Y-110876488D01*
X153831686Y-110830732D01*
X153900844Y-110820788D01*
X153964400Y-110849812D01*
X153986301Y-110874635D01*
X154093222Y-111034655D01*
X154239542Y-111180975D01*
X154239545Y-111180977D01*
X154411602Y-111295941D01*
X154602780Y-111375130D01*
X154805730Y-111415499D01*
X154805734Y-111415500D01*
X154805735Y-111415500D01*
X155012666Y-111415500D01*
X155012667Y-111415499D01*
X155215620Y-111375130D01*
X155406798Y-111295941D01*
X155578855Y-111180977D01*
X155725177Y-111034655D01*
X155840141Y-110862598D01*
X155919330Y-110671420D01*
X155959700Y-110468465D01*
X155959700Y-109961535D01*
X155919330Y-109758580D01*
X155840141Y-109567402D01*
X155725177Y-109395345D01*
X155725175Y-109395342D01*
X155578857Y-109249024D01*
X155462334Y-109171167D01*
X155406798Y-109134059D01*
X155215620Y-109054870D01*
X155215612Y-109054868D01*
X155012669Y-109014500D01*
X155012665Y-109014500D01*
X154805735Y-109014500D01*
X154805730Y-109014500D01*
X154602787Y-109054868D01*
X154602779Y-109054870D01*
X154411603Y-109134058D01*
X154239542Y-109249024D01*
X154093224Y-109395342D01*
X153986302Y-109555365D01*
X153932689Y-109600171D01*
X153863365Y-109608878D01*
X153800337Y-109578724D01*
X153763617Y-109519281D01*
X153759199Y-109486475D01*
X153759199Y-109415028D01*
X153759198Y-109415012D01*
X153748705Y-109312302D01*
X153693558Y-109145880D01*
X153693556Y-109145875D01*
X153601515Y-108996654D01*
X153477545Y-108872684D01*
X153328324Y-108780643D01*
X153328319Y-108780641D01*
X153161897Y-108725494D01*
X153161890Y-108725493D01*
X153059186Y-108715000D01*
X152659200Y-108715000D01*
X152659200Y-109781988D01*
X152602193Y-109749075D01*
X152475026Y-109715000D01*
X152343374Y-109715000D01*
X152216207Y-109749075D01*
X152159200Y-109781988D01*
X152159200Y-108715000D01*
X151759228Y-108715000D01*
X151759212Y-108715001D01*
X151656502Y-108725494D01*
X151490080Y-108780641D01*
X151490075Y-108780643D01*
X151340854Y-108872684D01*
X151216884Y-108996654D01*
X151124843Y-109145875D01*
X151124841Y-109145880D01*
X151069694Y-109312302D01*
X151069693Y-109312309D01*
X151059200Y-109415013D01*
X148574984Y-109415013D01*
X148139512Y-108979541D01*
X148139504Y-108979535D01*
X148070995Y-108939982D01*
X148070990Y-108939979D01*
X148045513Y-108933152D01*
X147994562Y-108919500D01*
X147994560Y-108919500D01*
X144955833Y-108919500D01*
X144888794Y-108899815D01*
X144868152Y-108883181D01*
X144608819Y-108623848D01*
X144575334Y-108562525D01*
X144572500Y-108536167D01*
X144572500Y-107726328D01*
X144592185Y-107659289D01*
X144644989Y-107613534D01*
X144651131Y-107611212D01*
X144651103Y-107611144D01*
X144656723Y-107608815D01*
X144656727Y-107608814D01*
X144830538Y-107515910D01*
X144982883Y-107390883D01*
X145107910Y-107238538D01*
X145200814Y-107064727D01*
X145258024Y-106876132D01*
X145277341Y-106680000D01*
X145806659Y-106680000D01*
X145825975Y-106876129D01*
X145829660Y-106888276D01*
X145875166Y-107038290D01*
X145883188Y-107064733D01*
X145976086Y-107238532D01*
X145976090Y-107238539D01*
X146101116Y-107390883D01*
X146253460Y-107515909D01*
X146253467Y-107515913D01*
X146427266Y-107608811D01*
X146427269Y-107608811D01*
X146427273Y-107608814D01*
X146615868Y-107666024D01*
X146812000Y-107685341D01*
X147008132Y-107666024D01*
X147196727Y-107608814D01*
X147237362Y-107587094D01*
X159797680Y-107587094D01*
X159797680Y-107726665D01*
X159824905Y-107863534D01*
X159824907Y-107863542D01*
X159878314Y-107992477D01*
X159878319Y-107992487D01*
X159955851Y-108108521D01*
X159955854Y-108108525D01*
X160054534Y-108207205D01*
X160054538Y-108207208D01*
X160170572Y-108284740D01*
X160170576Y-108284742D01*
X160170579Y-108284744D01*
X160299518Y-108338153D01*
X160436394Y-108365379D01*
X160436398Y-108365380D01*
X160436399Y-108365380D01*
X161591962Y-108365380D01*
X161591963Y-108365379D01*
X161728842Y-108338153D01*
X161857781Y-108284744D01*
X161973822Y-108207208D01*
X162072508Y-108108522D01*
X162150044Y-107992481D01*
X162203453Y-107863542D01*
X162230680Y-107726661D01*
X162230680Y-107645679D01*
X174701482Y-107645679D01*
X174701482Y-107645686D01*
X174720958Y-107818547D01*
X174720959Y-107818553D01*
X174778417Y-107982760D01*
X174778418Y-107982761D01*
X174870974Y-108130063D01*
X174993987Y-108253076D01*
X175141289Y-108345632D01*
X175305494Y-108403090D01*
X175305500Y-108403090D01*
X175305502Y-108403091D01*
X175478363Y-108422568D01*
X175478367Y-108422568D01*
X175478371Y-108422568D01*
X175651231Y-108403091D01*
X175651230Y-108403091D01*
X175651240Y-108403090D01*
X175815445Y-108345632D01*
X175962747Y-108253076D01*
X176085760Y-108130063D01*
X176178316Y-107982761D01*
X176235774Y-107818556D01*
X176246166Y-107726328D01*
X176255252Y-107645686D01*
X176255252Y-107645679D01*
X177241482Y-107645679D01*
X177241482Y-107645686D01*
X177260958Y-107818547D01*
X177260959Y-107818553D01*
X177318417Y-107982760D01*
X177318418Y-107982761D01*
X177410974Y-108130063D01*
X177533987Y-108253076D01*
X177681289Y-108345632D01*
X177845494Y-108403090D01*
X177845500Y-108403090D01*
X177845502Y-108403091D01*
X178018363Y-108422568D01*
X178018367Y-108422568D01*
X178018371Y-108422568D01*
X178191231Y-108403091D01*
X178191230Y-108403091D01*
X178191240Y-108403090D01*
X178355445Y-108345632D01*
X178502747Y-108253076D01*
X178625760Y-108130063D01*
X178718316Y-107982761D01*
X178775774Y-107818556D01*
X178786166Y-107726328D01*
X178795252Y-107645686D01*
X178795252Y-107645679D01*
X178775775Y-107472818D01*
X178775774Y-107472812D01*
X178775774Y-107472810D01*
X178718316Y-107308605D01*
X178625760Y-107161303D01*
X178502747Y-107038290D01*
X178402988Y-106975607D01*
X178355444Y-106945733D01*
X178191237Y-106888275D01*
X178191231Y-106888274D01*
X178018371Y-106868798D01*
X178018363Y-106868798D01*
X177845502Y-106888274D01*
X177845496Y-106888275D01*
X177681289Y-106945733D01*
X177533986Y-107038290D01*
X177410974Y-107161302D01*
X177318417Y-107308605D01*
X177260959Y-107472812D01*
X177260958Y-107472818D01*
X177241482Y-107645679D01*
X176255252Y-107645679D01*
X176235775Y-107472818D01*
X176235774Y-107472812D01*
X176235774Y-107472810D01*
X176178316Y-107308605D01*
X176085760Y-107161303D01*
X175962747Y-107038290D01*
X175862988Y-106975607D01*
X175815444Y-106945733D01*
X175651237Y-106888275D01*
X175651231Y-106888274D01*
X175478371Y-106868798D01*
X175478363Y-106868798D01*
X175305502Y-106888274D01*
X175305496Y-106888275D01*
X175141289Y-106945733D01*
X174993986Y-107038290D01*
X174870974Y-107161302D01*
X174778417Y-107308605D01*
X174720959Y-107472812D01*
X174720958Y-107472818D01*
X174701482Y-107645679D01*
X162230680Y-107645679D01*
X162230680Y-107587099D01*
X162203453Y-107450218D01*
X162150044Y-107321279D01*
X162150042Y-107321276D01*
X162150040Y-107321272D01*
X162072508Y-107205238D01*
X162072505Y-107205234D01*
X161973825Y-107106554D01*
X161973821Y-107106551D01*
X161857787Y-107029019D01*
X161857777Y-107029014D01*
X161728842Y-106975607D01*
X161728834Y-106975605D01*
X161591965Y-106948380D01*
X161591961Y-106948380D01*
X160436399Y-106948380D01*
X160436394Y-106948380D01*
X160299525Y-106975605D01*
X160299517Y-106975607D01*
X160170582Y-107029014D01*
X160170572Y-107029019D01*
X160054538Y-107106551D01*
X160054534Y-107106554D01*
X159955854Y-107205234D01*
X159955851Y-107205238D01*
X159878319Y-107321272D01*
X159878314Y-107321282D01*
X159824907Y-107450217D01*
X159824905Y-107450225D01*
X159797680Y-107587094D01*
X147237362Y-107587094D01*
X147370538Y-107515910D01*
X147522883Y-107390883D01*
X147647910Y-107238538D01*
X147740814Y-107064727D01*
X147798024Y-106876132D01*
X147817341Y-106680000D01*
X147798024Y-106483868D01*
X147740814Y-106295273D01*
X147740811Y-106295269D01*
X147740811Y-106295266D01*
X147647913Y-106121467D01*
X147647909Y-106121460D01*
X147522883Y-105969116D01*
X147370539Y-105844090D01*
X147370532Y-105844086D01*
X147196733Y-105751188D01*
X147196727Y-105751186D01*
X147008132Y-105693976D01*
X147008129Y-105693975D01*
X146812000Y-105674659D01*
X146615870Y-105693975D01*
X146427266Y-105751188D01*
X146253467Y-105844086D01*
X146253460Y-105844090D01*
X146101116Y-105969116D01*
X145976090Y-106121460D01*
X145976086Y-106121467D01*
X145883188Y-106295266D01*
X145825975Y-106483870D01*
X145806659Y-106680000D01*
X145277341Y-106680000D01*
X145258024Y-106483868D01*
X145200814Y-106295273D01*
X145200811Y-106295269D01*
X145200811Y-106295266D01*
X145107913Y-106121467D01*
X145107909Y-106121460D01*
X144982883Y-105969116D01*
X144830539Y-105844090D01*
X144830532Y-105844086D01*
X144656733Y-105751188D01*
X144656727Y-105751186D01*
X144468132Y-105693976D01*
X144468129Y-105693975D01*
X144272000Y-105674659D01*
X144075870Y-105693975D01*
X143887266Y-105751188D01*
X143713467Y-105844086D01*
X143713460Y-105844090D01*
X143561116Y-105969116D01*
X143436090Y-106121460D01*
X143436086Y-106121467D01*
X143343188Y-106295266D01*
X143285975Y-106483870D01*
X143266659Y-106680000D01*
X143285975Y-106876129D01*
X143289660Y-106888276D01*
X143335166Y-107038290D01*
X143343188Y-107064733D01*
X143436086Y-107238532D01*
X143436090Y-107238539D01*
X143561116Y-107390883D01*
X143713460Y-107515909D01*
X143713467Y-107515913D01*
X143887273Y-107608814D01*
X143892897Y-107611144D01*
X143892020Y-107613260D01*
X143941917Y-107645945D01*
X143970387Y-107709751D01*
X143971500Y-107726328D01*
X143971500Y-108751562D01*
X143984278Y-108799250D01*
X143991979Y-108827989D01*
X144002689Y-108846538D01*
X144002690Y-108846542D01*
X144002691Y-108846542D01*
X144031539Y-108896509D01*
X144031541Y-108896512D01*
X144477848Y-109342819D01*
X144511333Y-109404142D01*
X144506349Y-109473834D01*
X144464477Y-109529767D01*
X144399013Y-109554184D01*
X144390167Y-109554500D01*
X142415833Y-109554500D01*
X142348794Y-109534815D01*
X142328152Y-109518181D01*
X142068819Y-109258848D01*
X142035334Y-109197525D01*
X142032500Y-109171167D01*
X142032500Y-107726328D01*
X142052185Y-107659289D01*
X142104989Y-107613534D01*
X142111131Y-107611212D01*
X142111103Y-107611144D01*
X142116723Y-107608815D01*
X142116727Y-107608814D01*
X142290538Y-107515910D01*
X142442883Y-107390883D01*
X142567910Y-107238538D01*
X142660814Y-107064727D01*
X142718024Y-106876132D01*
X142737341Y-106680000D01*
X142718024Y-106483868D01*
X142660814Y-106295273D01*
X142660811Y-106295269D01*
X142660811Y-106295266D01*
X142567913Y-106121467D01*
X142567909Y-106121460D01*
X142442883Y-105969116D01*
X142290539Y-105844090D01*
X142290532Y-105844086D01*
X142116733Y-105751188D01*
X142116727Y-105751186D01*
X141928132Y-105693976D01*
X141928129Y-105693975D01*
X141732000Y-105674659D01*
X141535870Y-105693975D01*
X141347266Y-105751188D01*
X141173467Y-105844086D01*
X141173460Y-105844090D01*
X141021116Y-105969116D01*
X140896090Y-106121460D01*
X140896086Y-106121467D01*
X140803188Y-106295266D01*
X140745975Y-106483870D01*
X140726659Y-106680000D01*
X140745975Y-106876129D01*
X140749660Y-106888276D01*
X140795166Y-107038290D01*
X140803188Y-107064733D01*
X140896086Y-107238532D01*
X140896090Y-107238539D01*
X141021116Y-107390883D01*
X141173460Y-107515909D01*
X141173467Y-107515913D01*
X141347273Y-107608814D01*
X141352897Y-107611144D01*
X141352020Y-107613260D01*
X141401917Y-107645945D01*
X141430387Y-107709751D01*
X141431500Y-107726328D01*
X141431500Y-109386562D01*
X141436211Y-109404142D01*
X141451979Y-109462991D01*
X141451981Y-109462994D01*
X141473631Y-109500493D01*
X141473633Y-109500496D01*
X141473636Y-109500500D01*
X141491540Y-109531511D01*
X141491541Y-109531512D01*
X141937848Y-109977819D01*
X141971333Y-110039142D01*
X141966349Y-110108834D01*
X141924477Y-110164767D01*
X141859013Y-110189184D01*
X141850167Y-110189500D01*
X139875833Y-110189500D01*
X139808794Y-110169815D01*
X139788152Y-110153181D01*
X139528819Y-109893848D01*
X139495334Y-109832525D01*
X139492500Y-109806167D01*
X139492500Y-107726328D01*
X139512185Y-107659289D01*
X139564989Y-107613534D01*
X139571131Y-107611212D01*
X139571103Y-107611144D01*
X139576723Y-107608815D01*
X139576727Y-107608814D01*
X139750538Y-107515910D01*
X139902883Y-107390883D01*
X140027910Y-107238538D01*
X140120814Y-107064727D01*
X140178024Y-106876132D01*
X140197341Y-106680000D01*
X140178024Y-106483868D01*
X140120814Y-106295273D01*
X140120811Y-106295269D01*
X140120811Y-106295266D01*
X140027913Y-106121467D01*
X140027909Y-106121460D01*
X139902883Y-105969116D01*
X139750539Y-105844090D01*
X139750532Y-105844086D01*
X139576733Y-105751188D01*
X139576727Y-105751186D01*
X139388132Y-105693976D01*
X139388129Y-105693975D01*
X139192000Y-105674659D01*
X138995870Y-105693975D01*
X138807266Y-105751188D01*
X138633467Y-105844086D01*
X138633460Y-105844090D01*
X138481116Y-105969116D01*
X138356090Y-106121460D01*
X138356086Y-106121467D01*
X138263188Y-106295266D01*
X138205975Y-106483870D01*
X138186659Y-106680000D01*
X130980000Y-106680000D01*
X130980000Y-106110000D01*
X129955278Y-106110000D01*
X129999333Y-106033694D01*
X130030000Y-105919244D01*
X130030000Y-105800756D01*
X129999333Y-105686306D01*
X129955278Y-105610000D01*
X130980000Y-105610000D01*
X130980000Y-105037094D01*
X159797680Y-105037094D01*
X159797680Y-105176665D01*
X159824905Y-105313534D01*
X159824907Y-105313542D01*
X159878314Y-105442477D01*
X159878319Y-105442487D01*
X159955851Y-105558521D01*
X159955854Y-105558525D01*
X160054534Y-105657205D01*
X160054538Y-105657208D01*
X160170572Y-105734740D01*
X160170576Y-105734742D01*
X160170579Y-105734744D01*
X160299518Y-105788153D01*
X160436394Y-105815379D01*
X160436398Y-105815380D01*
X160436399Y-105815380D01*
X161591962Y-105815380D01*
X161591963Y-105815379D01*
X161728842Y-105788153D01*
X161857781Y-105734744D01*
X161973822Y-105657208D01*
X162072508Y-105558522D01*
X162150044Y-105442481D01*
X162203453Y-105313542D01*
X162230680Y-105176661D01*
X162230680Y-105105679D01*
X174701482Y-105105679D01*
X174701482Y-105105686D01*
X174720958Y-105278547D01*
X174720959Y-105278553D01*
X174778417Y-105442760D01*
X174778418Y-105442761D01*
X174870974Y-105590063D01*
X174993987Y-105713076D01*
X175141289Y-105805632D01*
X175305494Y-105863090D01*
X175305500Y-105863090D01*
X175305502Y-105863091D01*
X175478363Y-105882568D01*
X175478367Y-105882568D01*
X175478371Y-105882568D01*
X175651231Y-105863091D01*
X175651230Y-105863091D01*
X175651240Y-105863090D01*
X175815445Y-105805632D01*
X175962747Y-105713076D01*
X176085760Y-105590063D01*
X176178316Y-105442761D01*
X176235774Y-105278556D01*
X176255252Y-105105683D01*
X176255252Y-105105679D01*
X177241482Y-105105679D01*
X177241482Y-105105686D01*
X177260958Y-105278547D01*
X177260959Y-105278553D01*
X177318417Y-105442760D01*
X177318418Y-105442761D01*
X177410974Y-105590063D01*
X177533987Y-105713076D01*
X177681289Y-105805632D01*
X177845494Y-105863090D01*
X177845500Y-105863090D01*
X177845502Y-105863091D01*
X178018363Y-105882568D01*
X178018367Y-105882568D01*
X178018371Y-105882568D01*
X178191231Y-105863091D01*
X178191230Y-105863091D01*
X178191240Y-105863090D01*
X178355445Y-105805632D01*
X178502747Y-105713076D01*
X178625760Y-105590063D01*
X178718316Y-105442761D01*
X178775774Y-105278556D01*
X178795252Y-105105683D01*
X178787524Y-105037099D01*
X178775775Y-104932818D01*
X178775774Y-104932812D01*
X178775774Y-104932810D01*
X178718316Y-104768605D01*
X178625760Y-104621303D01*
X178502747Y-104498290D01*
X178355444Y-104405733D01*
X178191237Y-104348275D01*
X178191231Y-104348274D01*
X178018371Y-104328798D01*
X178018363Y-104328798D01*
X177845502Y-104348274D01*
X177845496Y-104348275D01*
X177681289Y-104405733D01*
X177533986Y-104498290D01*
X177410974Y-104621302D01*
X177318417Y-104768605D01*
X177260959Y-104932812D01*
X177260958Y-104932818D01*
X177241482Y-105105679D01*
X176255252Y-105105679D01*
X176247524Y-105037099D01*
X176235775Y-104932818D01*
X176235774Y-104932812D01*
X176235774Y-104932810D01*
X176178316Y-104768605D01*
X176085760Y-104621303D01*
X175962747Y-104498290D01*
X175815444Y-104405733D01*
X175651237Y-104348275D01*
X175651231Y-104348274D01*
X175478371Y-104328798D01*
X175478363Y-104328798D01*
X175305502Y-104348274D01*
X175305496Y-104348275D01*
X175141289Y-104405733D01*
X174993986Y-104498290D01*
X174870974Y-104621302D01*
X174778417Y-104768605D01*
X174720959Y-104932812D01*
X174720958Y-104932818D01*
X174701482Y-105105679D01*
X162230680Y-105105679D01*
X162230680Y-105037099D01*
X162203453Y-104900218D01*
X162150044Y-104771279D01*
X162150042Y-104771276D01*
X162150040Y-104771272D01*
X162072508Y-104655238D01*
X162072505Y-104655234D01*
X161973825Y-104556554D01*
X161973821Y-104556551D01*
X161857787Y-104479019D01*
X161857777Y-104479014D01*
X161728842Y-104425607D01*
X161728834Y-104425605D01*
X161591965Y-104398380D01*
X161591961Y-104398380D01*
X160436399Y-104398380D01*
X160436394Y-104398380D01*
X160299525Y-104425605D01*
X160299517Y-104425607D01*
X160170582Y-104479014D01*
X160170572Y-104479019D01*
X160054538Y-104556551D01*
X160054534Y-104556554D01*
X159955854Y-104655234D01*
X159955851Y-104655238D01*
X159878319Y-104771272D01*
X159878314Y-104771282D01*
X159824907Y-104900217D01*
X159824905Y-104900225D01*
X159797680Y-105037094D01*
X130980000Y-105037094D01*
X130980000Y-104912172D01*
X130979999Y-104912155D01*
X130973598Y-104852627D01*
X130973596Y-104852620D01*
X130923354Y-104717913D01*
X130923350Y-104717906D01*
X130837190Y-104602812D01*
X130837187Y-104602809D01*
X130722093Y-104516649D01*
X130722086Y-104516645D01*
X130587379Y-104466403D01*
X130587372Y-104466401D01*
X130527844Y-104460000D01*
X129830000Y-104460000D01*
X129830000Y-105484722D01*
X129753694Y-105440667D01*
X129639244Y-105410000D01*
X129520756Y-105410000D01*
X129406306Y-105440667D01*
X129330000Y-105484722D01*
X129330000Y-104460000D01*
X128632155Y-104460000D01*
X128572627Y-104466401D01*
X128572620Y-104466403D01*
X128437913Y-104516645D01*
X128437906Y-104516649D01*
X128322812Y-104602809D01*
X128322809Y-104602812D01*
X128236649Y-104717906D01*
X128236645Y-104717913D01*
X128186403Y-104852620D01*
X128186401Y-104852627D01*
X128180000Y-104912155D01*
X127540500Y-104912155D01*
X127540500Y-103445239D01*
X132968500Y-103445239D01*
X132968500Y-104050760D01*
X132971274Y-104080349D01*
X133014884Y-104204976D01*
X133093288Y-104311210D01*
X133093289Y-104311211D01*
X133199523Y-104389615D01*
X133199524Y-104389615D01*
X133199525Y-104389616D01*
X133324151Y-104433225D01*
X133324150Y-104433225D01*
X133353740Y-104436000D01*
X133353744Y-104436000D01*
X133934260Y-104436000D01*
X133963849Y-104433225D01*
X134088475Y-104389616D01*
X134194711Y-104311211D01*
X134273116Y-104204975D01*
X134316725Y-104080349D01*
X134319500Y-104050756D01*
X134319500Y-103504997D01*
X140427034Y-103504997D01*
X140427034Y-103505002D01*
X140446858Y-103731599D01*
X140446860Y-103731610D01*
X140505730Y-103951317D01*
X140505735Y-103951331D01*
X140601863Y-104157478D01*
X140652974Y-104230472D01*
X141332000Y-103551446D01*
X141332000Y-103557661D01*
X141359259Y-103659394D01*
X141411920Y-103750606D01*
X141486394Y-103825080D01*
X141577606Y-103877741D01*
X141679339Y-103905000D01*
X141685553Y-103905000D01*
X141006526Y-104584025D01*
X141079513Y-104635132D01*
X141079521Y-104635136D01*
X141285668Y-104731264D01*
X141285682Y-104731269D01*
X141505389Y-104790139D01*
X141505400Y-104790141D01*
X141731998Y-104809966D01*
X141732002Y-104809966D01*
X141958599Y-104790141D01*
X141958610Y-104790139D01*
X142178317Y-104731269D01*
X142178331Y-104731264D01*
X142384478Y-104635136D01*
X142457471Y-104584024D01*
X141778447Y-103905000D01*
X141784661Y-103905000D01*
X141886394Y-103877741D01*
X141977606Y-103825080D01*
X142052080Y-103750606D01*
X142104741Y-103659394D01*
X142132000Y-103557661D01*
X142132000Y-103551447D01*
X142811024Y-104230471D01*
X142862136Y-104157478D01*
X142958264Y-103951331D01*
X142958269Y-103951317D01*
X143017139Y-103731610D01*
X143017141Y-103731599D01*
X143036966Y-103505002D01*
X143036966Y-103504997D01*
X143017141Y-103278400D01*
X143017139Y-103278389D01*
X142958269Y-103058682D01*
X142958264Y-103058668D01*
X142862136Y-102852521D01*
X142862132Y-102852513D01*
X142811025Y-102779526D01*
X142132000Y-103458551D01*
X142132000Y-103452339D01*
X142104741Y-103350606D01*
X142052080Y-103259394D01*
X141977606Y-103184920D01*
X141886394Y-103132259D01*
X141784661Y-103105000D01*
X141778448Y-103105000D01*
X142457472Y-102425974D01*
X142384478Y-102374863D01*
X142178331Y-102278735D01*
X142178317Y-102278730D01*
X141958610Y-102219860D01*
X141958599Y-102219858D01*
X141732002Y-102200034D01*
X141731998Y-102200034D01*
X141505400Y-102219858D01*
X141505389Y-102219860D01*
X141285682Y-102278730D01*
X141285673Y-102278734D01*
X141079516Y-102374866D01*
X141079512Y-102374868D01*
X141006526Y-102425973D01*
X141006526Y-102425974D01*
X141685553Y-103105000D01*
X141679339Y-103105000D01*
X141577606Y-103132259D01*
X141486394Y-103184920D01*
X141411920Y-103259394D01*
X141359259Y-103350606D01*
X141332000Y-103452339D01*
X141332000Y-103458552D01*
X140652974Y-102779526D01*
X140652973Y-102779526D01*
X140601868Y-102852512D01*
X140601866Y-102852516D01*
X140505734Y-103058673D01*
X140505730Y-103058682D01*
X140446860Y-103278389D01*
X140446858Y-103278400D01*
X140427034Y-103504997D01*
X134319500Y-103504997D01*
X134319500Y-103445244D01*
X134316725Y-103415651D01*
X134273116Y-103291025D01*
X134263798Y-103278400D01*
X134194711Y-103184789D01*
X134194710Y-103184788D01*
X134088476Y-103106384D01*
X133963848Y-103062774D01*
X133963849Y-103062774D01*
X133934260Y-103060000D01*
X133934256Y-103060000D01*
X133353744Y-103060000D01*
X133353740Y-103060000D01*
X133324150Y-103062774D01*
X133199523Y-103106384D01*
X133093289Y-103184788D01*
X133093288Y-103184789D01*
X133014884Y-103291023D01*
X132971274Y-103415650D01*
X132968500Y-103445239D01*
X127540500Y-103445239D01*
X127540500Y-101620239D01*
X132968500Y-101620239D01*
X132968500Y-102225760D01*
X132971274Y-102255349D01*
X133014884Y-102379976D01*
X133093288Y-102486210D01*
X133093289Y-102486211D01*
X133199523Y-102564615D01*
X133199524Y-102564615D01*
X133199525Y-102564616D01*
X133324151Y-102608225D01*
X133324150Y-102608225D01*
X133353740Y-102611000D01*
X133353744Y-102611000D01*
X133934260Y-102611000D01*
X133963849Y-102608225D01*
X134088475Y-102564616D01*
X134194711Y-102486211D01*
X134273116Y-102379975D01*
X134316725Y-102255349D01*
X134319500Y-102225756D01*
X134319500Y-101620244D01*
X134316725Y-101590651D01*
X134273116Y-101466025D01*
X134194711Y-101359789D01*
X134194710Y-101359788D01*
X134088476Y-101281384D01*
X133963848Y-101237774D01*
X133963849Y-101237774D01*
X133934260Y-101235000D01*
X133934256Y-101235000D01*
X133353744Y-101235000D01*
X133353740Y-101235000D01*
X133324150Y-101237774D01*
X133199523Y-101281384D01*
X133093289Y-101359788D01*
X133093288Y-101359789D01*
X133014884Y-101466023D01*
X132971274Y-101590650D01*
X132968500Y-101620239D01*
X127540500Y-101620239D01*
X127540500Y-99059994D01*
X149704859Y-99059994D01*
X149704859Y-99060005D01*
X149725385Y-99307729D01*
X149725387Y-99307738D01*
X149786412Y-99548717D01*
X149886266Y-99776364D01*
X149986564Y-99929882D01*
X150727037Y-99189409D01*
X150744075Y-99252993D01*
X150809901Y-99367007D01*
X150902993Y-99460099D01*
X151017007Y-99525925D01*
X151080590Y-99542962D01*
X150339942Y-100283609D01*
X150386768Y-100320055D01*
X150386770Y-100320056D01*
X150605385Y-100438364D01*
X150605396Y-100438369D01*
X150840506Y-100519083D01*
X151085707Y-100560000D01*
X151334293Y-100560000D01*
X151579493Y-100519083D01*
X151814603Y-100438369D01*
X151814614Y-100438364D01*
X152033228Y-100320057D01*
X152033231Y-100320055D01*
X152080056Y-100283609D01*
X151339409Y-99542962D01*
X151402993Y-99525925D01*
X151517007Y-99460099D01*
X151610099Y-99367007D01*
X151675925Y-99252993D01*
X151692962Y-99189410D01*
X152433434Y-99929882D01*
X152533731Y-99776369D01*
X152633587Y-99548717D01*
X152694612Y-99307738D01*
X152694614Y-99307729D01*
X152715141Y-99060005D01*
X152715141Y-99059999D01*
X155004357Y-99059999D01*
X155004357Y-99060000D01*
X155024884Y-99281535D01*
X155024885Y-99281537D01*
X155085769Y-99495523D01*
X155085775Y-99495538D01*
X155184938Y-99694683D01*
X155184943Y-99694691D01*
X155319020Y-99872238D01*
X155483437Y-100022123D01*
X155483439Y-100022125D01*
X155672595Y-100139245D01*
X155672596Y-100139245D01*
X155672599Y-100139247D01*
X155880060Y-100219618D01*
X156098757Y-100260500D01*
X156098759Y-100260500D01*
X156321241Y-100260500D01*
X156321243Y-100260500D01*
X156539940Y-100219618D01*
X156747401Y-100139247D01*
X156936562Y-100022124D01*
X157100981Y-99872236D01*
X157235058Y-99694689D01*
X157334229Y-99495528D01*
X157395115Y-99281536D01*
X157415643Y-99060000D01*
X157415642Y-99059994D01*
X157395115Y-98838464D01*
X157395114Y-98838462D01*
X157387659Y-98812261D01*
X157334229Y-98624472D01*
X157319093Y-98594075D01*
X157235061Y-98425316D01*
X157235056Y-98425308D01*
X157100979Y-98247761D01*
X156936562Y-98097876D01*
X156936560Y-98097874D01*
X156747404Y-97980754D01*
X156747398Y-97980752D01*
X156539940Y-97900382D01*
X156321243Y-97859500D01*
X156098757Y-97859500D01*
X155880060Y-97900382D01*
X155748864Y-97951207D01*
X155672601Y-97980752D01*
X155672595Y-97980754D01*
X155483439Y-98097874D01*
X155483437Y-98097876D01*
X155319020Y-98247761D01*
X155184943Y-98425308D01*
X155184938Y-98425316D01*
X155085775Y-98624461D01*
X155085769Y-98624476D01*
X155024885Y-98838462D01*
X155024884Y-98838464D01*
X155004357Y-99059999D01*
X152715141Y-99059999D01*
X152715141Y-99059994D01*
X152694614Y-98812270D01*
X152694612Y-98812261D01*
X152633587Y-98571282D01*
X152533731Y-98343630D01*
X152433434Y-98190116D01*
X151692962Y-98930589D01*
X151675925Y-98867007D01*
X151610099Y-98752993D01*
X151517007Y-98659901D01*
X151402993Y-98594075D01*
X151339410Y-98577037D01*
X152080057Y-97836390D01*
X152080056Y-97836389D01*
X152033229Y-97799943D01*
X151814614Y-97681635D01*
X151814603Y-97681630D01*
X151579493Y-97600916D01*
X151334293Y-97560000D01*
X151085707Y-97560000D01*
X150840506Y-97600916D01*
X150605396Y-97681630D01*
X150605390Y-97681632D01*
X150386761Y-97799949D01*
X150339942Y-97836388D01*
X150339942Y-97836390D01*
X151080590Y-98577037D01*
X151017007Y-98594075D01*
X150902993Y-98659901D01*
X150809901Y-98752993D01*
X150744075Y-98867007D01*
X150727037Y-98930589D01*
X149986564Y-98190116D01*
X149886267Y-98343632D01*
X149786412Y-98571282D01*
X149725387Y-98812261D01*
X149725385Y-98812270D01*
X149704859Y-99059994D01*
X127540500Y-99059994D01*
X127540500Y-95574038D01*
X130519500Y-95574038D01*
X130519500Y-95825961D01*
X130558910Y-96074785D01*
X130636760Y-96314383D01*
X130751132Y-96538848D01*
X130899201Y-96742649D01*
X130899205Y-96742654D01*
X131077345Y-96920794D01*
X131077350Y-96920798D01*
X131117614Y-96950051D01*
X131281155Y-97068870D01*
X131424184Y-97141747D01*
X131505616Y-97183239D01*
X131505618Y-97183239D01*
X131505621Y-97183241D01*
X131745215Y-97261090D01*
X131994038Y-97300500D01*
X131994039Y-97300500D01*
X132245961Y-97300500D01*
X132245962Y-97300500D01*
X132494785Y-97261090D01*
X132734379Y-97183241D01*
X132958845Y-97068870D01*
X133162656Y-96920793D01*
X133340793Y-96742656D01*
X133488870Y-96538845D01*
X133603241Y-96314379D01*
X133681090Y-96074785D01*
X133711149Y-95885000D01*
X138186659Y-95885000D01*
X138205975Y-96081129D01*
X138263188Y-96269733D01*
X138356086Y-96443532D01*
X138356090Y-96443539D01*
X138481116Y-96595883D01*
X138633460Y-96720909D01*
X138633467Y-96720913D01*
X138807266Y-96813811D01*
X138807269Y-96813811D01*
X138807273Y-96813814D01*
X138995868Y-96871024D01*
X139192000Y-96890341D01*
X139388132Y-96871024D01*
X139576727Y-96813814D01*
X139750538Y-96720910D01*
X139902883Y-96595883D01*
X140027910Y-96443538D01*
X140120814Y-96269727D01*
X140178024Y-96081132D01*
X140197341Y-95885000D01*
X140178024Y-95688868D01*
X140120814Y-95500273D01*
X140120811Y-95500269D01*
X140120811Y-95500266D01*
X140027913Y-95326467D01*
X140027909Y-95326460D01*
X139902883Y-95174116D01*
X139750539Y-95049090D01*
X139750532Y-95049086D01*
X139576730Y-94956187D01*
X139571100Y-94953855D01*
X139571974Y-94951744D01*
X139522058Y-94919024D01*
X139493608Y-94855209D01*
X139492500Y-94838671D01*
X139492500Y-94663833D01*
X139512185Y-94596794D01*
X139528819Y-94576152D01*
X141058152Y-93046819D01*
X141119475Y-93013334D01*
X141145833Y-93010500D01*
X142485167Y-93010500D01*
X142552206Y-93030185D01*
X142597961Y-93082989D01*
X142607905Y-93152147D01*
X142578880Y-93215703D01*
X142572848Y-93222181D01*
X141491541Y-94303487D01*
X141491535Y-94303495D01*
X141451982Y-94372004D01*
X141451979Y-94372009D01*
X141431500Y-94448439D01*
X141431500Y-94838671D01*
X141411815Y-94905710D01*
X141359011Y-94951465D01*
X141352871Y-94953786D01*
X141352900Y-94953855D01*
X141347269Y-94956187D01*
X141173467Y-95049086D01*
X141173460Y-95049090D01*
X141021116Y-95174116D01*
X140896090Y-95326460D01*
X140896086Y-95326467D01*
X140803188Y-95500266D01*
X140745975Y-95688870D01*
X140726659Y-95885000D01*
X140745975Y-96081129D01*
X140803188Y-96269733D01*
X140896086Y-96443532D01*
X140896090Y-96443539D01*
X141021116Y-96595883D01*
X141173460Y-96720909D01*
X141173467Y-96720913D01*
X141347266Y-96813811D01*
X141347269Y-96813811D01*
X141347273Y-96813814D01*
X141535868Y-96871024D01*
X141732000Y-96890341D01*
X141928132Y-96871024D01*
X142116727Y-96813814D01*
X142290538Y-96720910D01*
X142442883Y-96595883D01*
X142567910Y-96443538D01*
X142660814Y-96269727D01*
X142718024Y-96081132D01*
X142737341Y-95885000D01*
X142718024Y-95688868D01*
X142660814Y-95500273D01*
X142660811Y-95500269D01*
X142660811Y-95500266D01*
X142567913Y-95326467D01*
X142567909Y-95326460D01*
X142442883Y-95174116D01*
X142290539Y-95049090D01*
X142290532Y-95049086D01*
X142116730Y-94956187D01*
X142111100Y-94953855D01*
X142111974Y-94951744D01*
X142062058Y-94919024D01*
X142033608Y-94855209D01*
X142032500Y-94838671D01*
X142032500Y-94663833D01*
X142052185Y-94596794D01*
X142068819Y-94576152D01*
X142963152Y-93681819D01*
X143024475Y-93648334D01*
X143050833Y-93645500D01*
X145787167Y-93645500D01*
X145854206Y-93665185D01*
X145899961Y-93717989D01*
X145909905Y-93787147D01*
X145880880Y-93850703D01*
X145874848Y-93857181D01*
X144799380Y-94932647D01*
X144738057Y-94966132D01*
X144668365Y-94961148D01*
X144662386Y-94958451D01*
X144662359Y-94958518D01*
X144656739Y-94956190D01*
X144656728Y-94956186D01*
X144656727Y-94956186D01*
X144468132Y-94898976D01*
X144468129Y-94898975D01*
X144272000Y-94879659D01*
X144075870Y-94898975D01*
X143887266Y-94956188D01*
X143713467Y-95049086D01*
X143713460Y-95049090D01*
X143561116Y-95174116D01*
X143436090Y-95326460D01*
X143436086Y-95326467D01*
X143343188Y-95500266D01*
X143285975Y-95688870D01*
X143266659Y-95885000D01*
X143285975Y-96081129D01*
X143343188Y-96269733D01*
X143436086Y-96443532D01*
X143436090Y-96443539D01*
X143561116Y-96595883D01*
X143713460Y-96720909D01*
X143713467Y-96720913D01*
X143887266Y-96813811D01*
X143887269Y-96813811D01*
X143887273Y-96813814D01*
X144075868Y-96871024D01*
X144272000Y-96890341D01*
X144468132Y-96871024D01*
X144656727Y-96813814D01*
X144830538Y-96720910D01*
X144982883Y-96595883D01*
X145107910Y-96443538D01*
X145200814Y-96269727D01*
X145258024Y-96081132D01*
X145277341Y-95885000D01*
X145258024Y-95688868D01*
X145200814Y-95500273D01*
X145200811Y-95500268D01*
X145200809Y-95500260D01*
X145198482Y-95494641D01*
X145200596Y-95493765D01*
X145188431Y-95435358D01*
X145213427Y-95370112D01*
X145224343Y-95357626D01*
X146265152Y-94316819D01*
X146326475Y-94283334D01*
X146352833Y-94280500D01*
X147839382Y-94280500D01*
X147906421Y-94300185D01*
X147952176Y-94352989D01*
X147962120Y-94422147D01*
X147933095Y-94485703D01*
X147921736Y-94497203D01*
X147391407Y-94968326D01*
X147328214Y-94998134D01*
X147258938Y-94989045D01*
X147250600Y-94984981D01*
X147196733Y-94956188D01*
X147196727Y-94956186D01*
X147008132Y-94898976D01*
X147008129Y-94898975D01*
X146812000Y-94879659D01*
X146615870Y-94898975D01*
X146427266Y-94956188D01*
X146253467Y-95049086D01*
X146253460Y-95049090D01*
X146101116Y-95174116D01*
X145976090Y-95326460D01*
X145976086Y-95326467D01*
X145883188Y-95500266D01*
X145825975Y-95688870D01*
X145806659Y-95885000D01*
X145825975Y-96081129D01*
X145883188Y-96269733D01*
X145976086Y-96443532D01*
X145976090Y-96443539D01*
X146101116Y-96595883D01*
X146253460Y-96720909D01*
X146253467Y-96720913D01*
X146427266Y-96813811D01*
X146427269Y-96813811D01*
X146427273Y-96813814D01*
X146615868Y-96871024D01*
X146812000Y-96890341D01*
X147008132Y-96871024D01*
X147196727Y-96813814D01*
X147370538Y-96720910D01*
X147522883Y-96595883D01*
X147647910Y-96443538D01*
X147740814Y-96269727D01*
X147798024Y-96081132D01*
X147817341Y-95885000D01*
X147798024Y-95688868D01*
X147754672Y-95545959D01*
X147754049Y-95476093D01*
X147790980Y-95417261D01*
X147844055Y-95370112D01*
X147921848Y-95301004D01*
X148320570Y-94946797D01*
X148383762Y-94916989D01*
X148402923Y-94915500D01*
X161064929Y-94915500D01*
X161131968Y-94935185D01*
X161167566Y-94969918D01*
X161718571Y-95782684D01*
X161770137Y-95858746D01*
X161791463Y-95925282D01*
X161791500Y-95928328D01*
X161791500Y-96611152D01*
X161771815Y-96678191D01*
X161719011Y-96723946D01*
X161705822Y-96729081D01*
X161687580Y-96735008D01*
X161631359Y-96753276D01*
X161463067Y-96839026D01*
X161310257Y-96950050D01*
X161176700Y-97083607D01*
X161065676Y-97236417D01*
X160979926Y-97404709D01*
X160921556Y-97584351D01*
X160892010Y-97770903D01*
X160892010Y-98709096D01*
X160921556Y-98895648D01*
X160979926Y-99075290D01*
X161005676Y-99125826D01*
X161065676Y-99243582D01*
X161176699Y-99396391D01*
X161310259Y-99529951D01*
X161463068Y-99640974D01*
X161542580Y-99681487D01*
X161631359Y-99726723D01*
X161631361Y-99726723D01*
X161631364Y-99726725D01*
X161727654Y-99758011D01*
X161811001Y-99785093D01*
X161997554Y-99814640D01*
X161997559Y-99814640D01*
X162186446Y-99814640D01*
X162372998Y-99785093D01*
X162552636Y-99726725D01*
X162720932Y-99640974D01*
X162873741Y-99529951D01*
X163007301Y-99396391D01*
X163118324Y-99243582D01*
X163204075Y-99075286D01*
X163244069Y-98952196D01*
X163283507Y-98894522D01*
X163347866Y-98867324D01*
X163416712Y-98879239D01*
X163468188Y-98926483D01*
X163479931Y-98952197D01*
X163519926Y-99075290D01*
X163545676Y-99125826D01*
X163605676Y-99243582D01*
X163716699Y-99396391D01*
X163850259Y-99529951D01*
X164003068Y-99640974D01*
X164082580Y-99681487D01*
X164171359Y-99726723D01*
X164171361Y-99726723D01*
X164171364Y-99726725D01*
X164267654Y-99758011D01*
X164351001Y-99785093D01*
X164537554Y-99814640D01*
X164537559Y-99814640D01*
X164726446Y-99814640D01*
X164912998Y-99785093D01*
X165092636Y-99726725D01*
X165260932Y-99640974D01*
X165413741Y-99529951D01*
X165547301Y-99396391D01*
X165658324Y-99243582D01*
X165744075Y-99075286D01*
X165784069Y-98952196D01*
X165823507Y-98894522D01*
X165887866Y-98867324D01*
X165956712Y-98879239D01*
X166008188Y-98926483D01*
X166019931Y-98952197D01*
X166059926Y-99075290D01*
X166085676Y-99125826D01*
X166145676Y-99243582D01*
X166256699Y-99396391D01*
X166390259Y-99529951D01*
X166543068Y-99640974D01*
X166622580Y-99681487D01*
X166711359Y-99726723D01*
X166711361Y-99726723D01*
X166711364Y-99726725D01*
X166807654Y-99758011D01*
X166891001Y-99785093D01*
X167077554Y-99814640D01*
X167077559Y-99814640D01*
X167266446Y-99814640D01*
X167452998Y-99785093D01*
X167632636Y-99726725D01*
X167800932Y-99640974D01*
X167953741Y-99529951D01*
X168087301Y-99396391D01*
X168198324Y-99243582D01*
X168284075Y-99075286D01*
X168324069Y-98952196D01*
X168363507Y-98894522D01*
X168427866Y-98867324D01*
X168496712Y-98879239D01*
X168548188Y-98926483D01*
X168559931Y-98952197D01*
X168599926Y-99075290D01*
X168625676Y-99125826D01*
X168685676Y-99243582D01*
X168796699Y-99396391D01*
X168930259Y-99529951D01*
X169083068Y-99640974D01*
X169162580Y-99681487D01*
X169251359Y-99726723D01*
X169251361Y-99726723D01*
X169251364Y-99726725D01*
X169347654Y-99758011D01*
X169431001Y-99785093D01*
X169617554Y-99814640D01*
X169617559Y-99814640D01*
X169806446Y-99814640D01*
X169992998Y-99785093D01*
X170172636Y-99726725D01*
X170340932Y-99640974D01*
X170493741Y-99529951D01*
X170627301Y-99396391D01*
X170738324Y-99243582D01*
X170824075Y-99075286D01*
X170864069Y-98952196D01*
X170903507Y-98894522D01*
X170967866Y-98867324D01*
X171036712Y-98879239D01*
X171088188Y-98926483D01*
X171099931Y-98952197D01*
X171139926Y-99075290D01*
X171165676Y-99125826D01*
X171225676Y-99243582D01*
X171336699Y-99396391D01*
X171470259Y-99529951D01*
X171623068Y-99640974D01*
X171702580Y-99681487D01*
X171791359Y-99726723D01*
X171791361Y-99726723D01*
X171791364Y-99726725D01*
X171887654Y-99758011D01*
X171971001Y-99785093D01*
X172157554Y-99814640D01*
X172157559Y-99814640D01*
X172346446Y-99814640D01*
X172532998Y-99785093D01*
X172712636Y-99726725D01*
X172880932Y-99640974D01*
X173033741Y-99529951D01*
X173167301Y-99396391D01*
X173278324Y-99243582D01*
X173364075Y-99075286D01*
X173404069Y-98952196D01*
X173443507Y-98894522D01*
X173507866Y-98867324D01*
X173576712Y-98879239D01*
X173628188Y-98926483D01*
X173639931Y-98952197D01*
X173679926Y-99075290D01*
X173705676Y-99125826D01*
X173765676Y-99243582D01*
X173876699Y-99396391D01*
X174010259Y-99529951D01*
X174163068Y-99640974D01*
X174242580Y-99681487D01*
X174331359Y-99726723D01*
X174331361Y-99726723D01*
X174331364Y-99726725D01*
X174427654Y-99758011D01*
X174511001Y-99785093D01*
X174697554Y-99814640D01*
X174697559Y-99814640D01*
X174886446Y-99814640D01*
X175072998Y-99785093D01*
X175252636Y-99726725D01*
X175420932Y-99640974D01*
X175573741Y-99529951D01*
X175707301Y-99396391D01*
X175818324Y-99243582D01*
X175904075Y-99075286D01*
X175944069Y-98952196D01*
X175983507Y-98894522D01*
X176047866Y-98867324D01*
X176116712Y-98879239D01*
X176168188Y-98926483D01*
X176179931Y-98952197D01*
X176219926Y-99075290D01*
X176245676Y-99125826D01*
X176305676Y-99243582D01*
X176416699Y-99396391D01*
X176550259Y-99529951D01*
X176703068Y-99640974D01*
X176782580Y-99681487D01*
X176871359Y-99726723D01*
X176871361Y-99726723D01*
X176871364Y-99726725D01*
X176967654Y-99758011D01*
X177051001Y-99785093D01*
X177237554Y-99814640D01*
X177237559Y-99814640D01*
X177426446Y-99814640D01*
X177612998Y-99785093D01*
X177792636Y-99726725D01*
X177960932Y-99640974D01*
X178113741Y-99529951D01*
X178247301Y-99396391D01*
X178358324Y-99243582D01*
X178444075Y-99075286D01*
X178502443Y-98895648D01*
X178511500Y-98838462D01*
X178531990Y-98709096D01*
X178531990Y-97770903D01*
X178502443Y-97584351D01*
X178444073Y-97404709D01*
X178358323Y-97236417D01*
X178319687Y-97183239D01*
X178247301Y-97083609D01*
X178113741Y-96950049D01*
X177960932Y-96839026D01*
X177960924Y-96839022D01*
X177792640Y-96753276D01*
X177612998Y-96694906D01*
X177426446Y-96665360D01*
X177426441Y-96665360D01*
X177237559Y-96665360D01*
X177237554Y-96665360D01*
X177051001Y-96694906D01*
X176871359Y-96753276D01*
X176703067Y-96839026D01*
X176550257Y-96950050D01*
X176416700Y-97083607D01*
X176305676Y-97236417D01*
X176219926Y-97404709D01*
X176179931Y-97527802D01*
X176140493Y-97585477D01*
X176076134Y-97612675D01*
X176007288Y-97600760D01*
X175955812Y-97553516D01*
X175944069Y-97527802D01*
X175904073Y-97404709D01*
X175818323Y-97236417D01*
X175779687Y-97183239D01*
X175707301Y-97083609D01*
X175573741Y-96950049D01*
X175420932Y-96839026D01*
X175420924Y-96839022D01*
X175252640Y-96753276D01*
X175072998Y-96694906D01*
X174886446Y-96665360D01*
X174886441Y-96665360D01*
X174697559Y-96665360D01*
X174697554Y-96665360D01*
X174511001Y-96694906D01*
X174331359Y-96753276D01*
X174163067Y-96839026D01*
X174010257Y-96950050D01*
X173876700Y-97083607D01*
X173765676Y-97236417D01*
X173679926Y-97404709D01*
X173639931Y-97527802D01*
X173600493Y-97585477D01*
X173536134Y-97612675D01*
X173467288Y-97600760D01*
X173415812Y-97553516D01*
X173404069Y-97527802D01*
X173364073Y-97404709D01*
X173278323Y-97236417D01*
X173239687Y-97183239D01*
X173167301Y-97083609D01*
X173033741Y-96950049D01*
X172880932Y-96839026D01*
X172880924Y-96839022D01*
X172712640Y-96753276D01*
X172532998Y-96694906D01*
X172405102Y-96674650D01*
X172341967Y-96644721D01*
X172305036Y-96585409D01*
X172300500Y-96552177D01*
X172300500Y-95574038D01*
X181319500Y-95574038D01*
X181319500Y-95825961D01*
X181358910Y-96074785D01*
X181436760Y-96314383D01*
X181551132Y-96538848D01*
X181699201Y-96742649D01*
X181699205Y-96742654D01*
X181877345Y-96920794D01*
X181877350Y-96920798D01*
X181917614Y-96950051D01*
X182081155Y-97068870D01*
X182224184Y-97141747D01*
X182305616Y-97183239D01*
X182305618Y-97183239D01*
X182305621Y-97183241D01*
X182545215Y-97261090D01*
X182794038Y-97300500D01*
X182794039Y-97300500D01*
X183045961Y-97300500D01*
X183045962Y-97300500D01*
X183294785Y-97261090D01*
X183534379Y-97183241D01*
X183758845Y-97068870D01*
X183962656Y-96920793D01*
X184140793Y-96742656D01*
X184288870Y-96538845D01*
X184403241Y-96314379D01*
X184481090Y-96074785D01*
X184520500Y-95825962D01*
X184520500Y-95574038D01*
X184481090Y-95325215D01*
X184403241Y-95085621D01*
X184403239Y-95085618D01*
X184403239Y-95085616D01*
X184338479Y-94958518D01*
X184288870Y-94861155D01*
X184202261Y-94741947D01*
X184140798Y-94657350D01*
X184140794Y-94657345D01*
X183962654Y-94479205D01*
X183962649Y-94479201D01*
X183758848Y-94331132D01*
X183758847Y-94331131D01*
X183758845Y-94331130D01*
X183659478Y-94280500D01*
X183534383Y-94216760D01*
X183294785Y-94138910D01*
X183096086Y-94107439D01*
X183045962Y-94099500D01*
X182794038Y-94099500D01*
X182743920Y-94107438D01*
X182545214Y-94138910D01*
X182305616Y-94216760D01*
X182081151Y-94331132D01*
X181877350Y-94479201D01*
X181877345Y-94479205D01*
X181699205Y-94657345D01*
X181699201Y-94657350D01*
X181551132Y-94861151D01*
X181436760Y-95085616D01*
X181358910Y-95325214D01*
X181319500Y-95574038D01*
X172300500Y-95574038D01*
X172300500Y-94659644D01*
X172320185Y-94592605D01*
X172357950Y-94557923D01*
X172356998Y-94556634D01*
X172410458Y-94517179D01*
X172457440Y-94482505D01*
X172523067Y-94458535D01*
X172591238Y-94473850D01*
X172636610Y-94517179D01*
X172700052Y-94620034D01*
X172700055Y-94620038D01*
X172821961Y-94741944D01*
X172821965Y-94741947D01*
X172968688Y-94832448D01*
X172968699Y-94832453D01*
X173132347Y-94886680D01*
X173233351Y-94896999D01*
X173832500Y-94896999D01*
X173931640Y-94896999D01*
X173931654Y-94896998D01*
X174032652Y-94886680D01*
X174196300Y-94832453D01*
X174196311Y-94832448D01*
X174343034Y-94741947D01*
X174343038Y-94741944D01*
X174464944Y-94620038D01*
X174464947Y-94620034D01*
X174555448Y-94473311D01*
X174555453Y-94473300D01*
X174609680Y-94309652D01*
X174619999Y-94208654D01*
X174620000Y-94208641D01*
X174620000Y-94172000D01*
X173832500Y-94172000D01*
X173832500Y-94896999D01*
X173233351Y-94896999D01*
X173332500Y-94896998D01*
X173332500Y-93672000D01*
X173832500Y-93672000D01*
X174619999Y-93672000D01*
X174619999Y-93635360D01*
X174619998Y-93635345D01*
X174609680Y-93534347D01*
X174555453Y-93370699D01*
X174555448Y-93370688D01*
X174464947Y-93223965D01*
X174464944Y-93223961D01*
X174343038Y-93102055D01*
X174343034Y-93102052D01*
X174196311Y-93011551D01*
X174196300Y-93011546D01*
X174032652Y-92957319D01*
X173931654Y-92947000D01*
X173832500Y-92947000D01*
X173832500Y-93672000D01*
X173332500Y-93672000D01*
X173332500Y-92946999D01*
X173233360Y-92947000D01*
X173233344Y-92947001D01*
X173132347Y-92957319D01*
X172968699Y-93011546D01*
X172968688Y-93011551D01*
X172821965Y-93102052D01*
X172821961Y-93102055D01*
X172700054Y-93223962D01*
X172636610Y-93326821D01*
X172584662Y-93373545D01*
X172515699Y-93384766D01*
X172457439Y-93361494D01*
X172364474Y-93292883D01*
X172239848Y-93249274D01*
X172239849Y-93249274D01*
X172210260Y-93246500D01*
X172210256Y-93246500D01*
X171504744Y-93246500D01*
X171504740Y-93246500D01*
X171475150Y-93249274D01*
X171350523Y-93292884D01*
X171244289Y-93371288D01*
X171244288Y-93371289D01*
X171165884Y-93477523D01*
X171122274Y-93602150D01*
X171119500Y-93631739D01*
X171119500Y-94212260D01*
X171122274Y-94241849D01*
X171165884Y-94366476D01*
X171244288Y-94472710D01*
X171244289Y-94472711D01*
X171350523Y-94551115D01*
X171350524Y-94551115D01*
X171350525Y-94551116D01*
X171475151Y-94594725D01*
X171475150Y-94594725D01*
X171504740Y-94597500D01*
X171504744Y-94597500D01*
X171575500Y-94597500D01*
X171642539Y-94617185D01*
X171688294Y-94669989D01*
X171699500Y-94721500D01*
X171699500Y-96724094D01*
X171679815Y-96791133D01*
X171631802Y-96834575D01*
X171623075Y-96839022D01*
X171623071Y-96839024D01*
X171470256Y-96950051D01*
X171336700Y-97083607D01*
X171225676Y-97236417D01*
X171139926Y-97404709D01*
X171099931Y-97527802D01*
X171060493Y-97585477D01*
X170996134Y-97612675D01*
X170927288Y-97600760D01*
X170875812Y-97553516D01*
X170864069Y-97527802D01*
X170824073Y-97404709D01*
X170738323Y-97236417D01*
X170699687Y-97183239D01*
X170627301Y-97083609D01*
X170493741Y-96950049D01*
X170340932Y-96839026D01*
X170340924Y-96839022D01*
X170172640Y-96753276D01*
X170128216Y-96738842D01*
X170098180Y-96729082D01*
X170040506Y-96689645D01*
X170013308Y-96625286D01*
X170012500Y-96611152D01*
X170012500Y-94107439D01*
X169992020Y-94031009D01*
X169992017Y-94031004D01*
X169952464Y-93962495D01*
X169952458Y-93962487D01*
X168459512Y-92469541D01*
X168459504Y-92469535D01*
X168390995Y-92429982D01*
X168390990Y-92429979D01*
X168365513Y-92423152D01*
X168314562Y-92409500D01*
X141009562Y-92409500D01*
X140930438Y-92409500D01*
X140854010Y-92429978D01*
X140785489Y-92469540D01*
X140785486Y-92469542D01*
X138951541Y-94303487D01*
X138951535Y-94303495D01*
X138911982Y-94372004D01*
X138911979Y-94372009D01*
X138891500Y-94448439D01*
X138891500Y-94838671D01*
X138871815Y-94905710D01*
X138819011Y-94951465D01*
X138812871Y-94953786D01*
X138812900Y-94953855D01*
X138807269Y-94956187D01*
X138633467Y-95049086D01*
X138633460Y-95049090D01*
X138481116Y-95174116D01*
X138356090Y-95326460D01*
X138356086Y-95326467D01*
X138263188Y-95500266D01*
X138205975Y-95688870D01*
X138186659Y-95885000D01*
X133711149Y-95885000D01*
X133720500Y-95825962D01*
X133720500Y-95574038D01*
X133681090Y-95325215D01*
X133603241Y-95085621D01*
X133603239Y-95085618D01*
X133603239Y-95085616D01*
X133538479Y-94958518D01*
X133488870Y-94861155D01*
X133402261Y-94741947D01*
X133340798Y-94657350D01*
X133340794Y-94657345D01*
X133162654Y-94479205D01*
X133162649Y-94479201D01*
X132958848Y-94331132D01*
X132958847Y-94331131D01*
X132958845Y-94331130D01*
X132859478Y-94280500D01*
X132734383Y-94216760D01*
X132494785Y-94138910D01*
X132296086Y-94107439D01*
X132245962Y-94099500D01*
X131994038Y-94099500D01*
X131943920Y-94107438D01*
X131745214Y-94138910D01*
X131505616Y-94216760D01*
X131281151Y-94331132D01*
X131077350Y-94479201D01*
X131077345Y-94479205D01*
X130899205Y-94657345D01*
X130899201Y-94657350D01*
X130751132Y-94861151D01*
X130636760Y-95085616D01*
X130558910Y-95325214D01*
X130519500Y-95574038D01*
X127540500Y-95574038D01*
X127540500Y-91244500D01*
X127560185Y-91177461D01*
X127612989Y-91131706D01*
X127664500Y-91120500D01*
X186415500Y-91120500D01*
X186482539Y-91140185D01*
G37*
%TD.AperFunction*%
%TD*%
M02*
