M48
; DRILL file {KiCad 8.0.4-8.0.4-0~ubuntu22.04.1} date 2024-07-31T14:37:40+0900
; FORMAT={-:-/ absolute / inch / decimal}
; #@! TF.CreationDate,2024-07-31T14:37:40+09:00
; #@! TF.GenerationSoftware,Kicad,Pcbnew,8.0.4-8.0.4-0~ubuntu22.04.1
; #@! TF.FileFunction,MixedPlating,1,2
FMAT,2
INCH
; #@! TA.AperFunction,Plated,PTH,ViaDrill
T1C0.0118
; #@! TA.AperFunction,Plated,PTH,ComponentDrill
T2C0.0315
; #@! TA.AperFunction,Plated,PTH,ComponentDrill
T3C0.0354
; #@! TA.AperFunction,Plated,PTH,ComponentDrill
T4C0.0394
; #@! TA.AperFunction,NonPlated,NPTH,ComponentDrill
T5C0.1063
%
G90
G05
T1
X5.26Y-4.015
X5.26Y-4.085
X6.682Y-4.5
X6.775Y-4.635
X6.78Y-3.87
X6.98Y-3.87
T2
X5.48Y-3.775
X5.48Y-4.2
X5.58Y-3.775
X5.58Y-4.075
X5.58Y-4.2
X5.58Y-4.5
X5.68Y-3.775
X5.68Y-4.2
X5.78Y-3.775
X5.78Y-4.2
T3
X5.1016Y-4.1677
X5.1016Y-4.2677
T4
X5.9531Y-3.9
X6.0004Y-4.3392
X6.0988Y-4.3392
X6.15Y-3.9
T5
X5.2016Y-3.7677
X5.2016Y-4.5677
X7.2016Y-3.7677
X7.2016Y-4.5677
M30
