%TF.GenerationSoftware,KiCad,Pcbnew,8.0.4-8.0.4-0~ubuntu22.04.1*%
%TF.CreationDate,2024-07-31T14:37:32+09:00*%
%TF.ProjectId,Q960,51393630-2e6b-4696-9361-645f70636258,1.00*%
%TF.SameCoordinates,Original*%
%TF.FileFunction,Legend,Bot*%
%TF.FilePolarity,Positive*%
%FSLAX46Y46*%
G04 Gerber Fmt 4.6, Leading zero omitted, Abs format (unit mm)*
G04 Created by KiCad (PCBNEW 8.0.4-8.0.4-0~ubuntu22.04.1) date 2024-07-31 14:37:32*
%MOMM*%
%LPD*%
G01*
G04 APERTURE LIST*
%ADD10C,0.150000*%
G04 APERTURE END LIST*
D10*
X144141649Y-108169152D02*
X144141649Y-108835819D01*
X144379744Y-107788200D02*
X144617839Y-108502485D01*
X144617839Y-108502485D02*
X143998792Y-108502485D01*
X142077839Y-107931057D02*
X142030220Y-107883438D01*
X142030220Y-107883438D02*
X141934982Y-107835819D01*
X141934982Y-107835819D02*
X141696887Y-107835819D01*
X141696887Y-107835819D02*
X141601649Y-107883438D01*
X141601649Y-107883438D02*
X141554030Y-107931057D01*
X141554030Y-107931057D02*
X141506411Y-108026295D01*
X141506411Y-108026295D02*
X141506411Y-108121533D01*
X141506411Y-108121533D02*
X141554030Y-108264390D01*
X141554030Y-108264390D02*
X142125458Y-108835819D01*
X142125458Y-108835819D02*
X141506411Y-108835819D01*
X138966411Y-108835819D02*
X139537839Y-108835819D01*
X139252125Y-108835819D02*
X139252125Y-107835819D01*
X139252125Y-107835819D02*
X139347363Y-107978676D01*
X139347363Y-107978676D02*
X139442601Y-108073914D01*
X139442601Y-108073914D02*
X139537839Y-108121533D01*
X146840363Y-108264390D02*
X146935601Y-108216771D01*
X146935601Y-108216771D02*
X146983220Y-108169152D01*
X146983220Y-108169152D02*
X147030839Y-108073914D01*
X147030839Y-108073914D02*
X147030839Y-108026295D01*
X147030839Y-108026295D02*
X146983220Y-107931057D01*
X146983220Y-107931057D02*
X146935601Y-107883438D01*
X146935601Y-107883438D02*
X146840363Y-107835819D01*
X146840363Y-107835819D02*
X146649887Y-107835819D01*
X146649887Y-107835819D02*
X146554649Y-107883438D01*
X146554649Y-107883438D02*
X146507030Y-107931057D01*
X146507030Y-107931057D02*
X146459411Y-108026295D01*
X146459411Y-108026295D02*
X146459411Y-108073914D01*
X146459411Y-108073914D02*
X146507030Y-108169152D01*
X146507030Y-108169152D02*
X146554649Y-108216771D01*
X146554649Y-108216771D02*
X146649887Y-108264390D01*
X146649887Y-108264390D02*
X146840363Y-108264390D01*
X146840363Y-108264390D02*
X146935601Y-108312009D01*
X146935601Y-108312009D02*
X146983220Y-108359628D01*
X146983220Y-108359628D02*
X147030839Y-108454866D01*
X147030839Y-108454866D02*
X147030839Y-108645342D01*
X147030839Y-108645342D02*
X146983220Y-108740580D01*
X146983220Y-108740580D02*
X146935601Y-108788200D01*
X146935601Y-108788200D02*
X146840363Y-108835819D01*
X146840363Y-108835819D02*
X146649887Y-108835819D01*
X146649887Y-108835819D02*
X146554649Y-108788200D01*
X146554649Y-108788200D02*
X146507030Y-108740580D01*
X146507030Y-108740580D02*
X146459411Y-108645342D01*
X146459411Y-108645342D02*
X146459411Y-108454866D01*
X146459411Y-108454866D02*
X146507030Y-108359628D01*
X146507030Y-108359628D02*
X146554649Y-108312009D01*
X146554649Y-108312009D02*
X146649887Y-108264390D01*
X141458792Y-113058580D02*
X141506411Y-113106200D01*
X141506411Y-113106200D02*
X141649268Y-113153819D01*
X141649268Y-113153819D02*
X141744506Y-113153819D01*
X141744506Y-113153819D02*
X141887363Y-113106200D01*
X141887363Y-113106200D02*
X141982601Y-113010961D01*
X141982601Y-113010961D02*
X142030220Y-112915723D01*
X142030220Y-112915723D02*
X142077839Y-112725247D01*
X142077839Y-112725247D02*
X142077839Y-112582390D01*
X142077839Y-112582390D02*
X142030220Y-112391914D01*
X142030220Y-112391914D02*
X141982601Y-112296676D01*
X141982601Y-112296676D02*
X141887363Y-112201438D01*
X141887363Y-112201438D02*
X141744506Y-112153819D01*
X141744506Y-112153819D02*
X141649268Y-112153819D01*
X141649268Y-112153819D02*
X141506411Y-112201438D01*
X141506411Y-112201438D02*
X141458792Y-112249057D01*
X146967363Y-97342390D02*
X147062601Y-97294771D01*
X147062601Y-97294771D02*
X147110220Y-97247152D01*
X147110220Y-97247152D02*
X147157839Y-97151914D01*
X147157839Y-97151914D02*
X147157839Y-97104295D01*
X147157839Y-97104295D02*
X147110220Y-97009057D01*
X147110220Y-97009057D02*
X147062601Y-96961438D01*
X147062601Y-96961438D02*
X146967363Y-96913819D01*
X146967363Y-96913819D02*
X146776887Y-96913819D01*
X146776887Y-96913819D02*
X146681649Y-96961438D01*
X146681649Y-96961438D02*
X146634030Y-97009057D01*
X146634030Y-97009057D02*
X146586411Y-97104295D01*
X146586411Y-97104295D02*
X146586411Y-97151914D01*
X146586411Y-97151914D02*
X146634030Y-97247152D01*
X146634030Y-97247152D02*
X146681649Y-97294771D01*
X146681649Y-97294771D02*
X146776887Y-97342390D01*
X146776887Y-97342390D02*
X146967363Y-97342390D01*
X146967363Y-97342390D02*
X147062601Y-97390009D01*
X147062601Y-97390009D02*
X147110220Y-97437628D01*
X147110220Y-97437628D02*
X147157839Y-97532866D01*
X147157839Y-97532866D02*
X147157839Y-97723342D01*
X147157839Y-97723342D02*
X147110220Y-97818580D01*
X147110220Y-97818580D02*
X147062601Y-97866200D01*
X147062601Y-97866200D02*
X146967363Y-97913819D01*
X146967363Y-97913819D02*
X146776887Y-97913819D01*
X146776887Y-97913819D02*
X146681649Y-97866200D01*
X146681649Y-97866200D02*
X146634030Y-97818580D01*
X146634030Y-97818580D02*
X146586411Y-97723342D01*
X146586411Y-97723342D02*
X146586411Y-97532866D01*
X146586411Y-97532866D02*
X146634030Y-97437628D01*
X146634030Y-97437628D02*
X146681649Y-97390009D01*
X146681649Y-97390009D02*
X146776887Y-97342390D01*
X141458792Y-102136580D02*
X141506411Y-102184200D01*
X141506411Y-102184200D02*
X141649268Y-102231819D01*
X141649268Y-102231819D02*
X141744506Y-102231819D01*
X141744506Y-102231819D02*
X141887363Y-102184200D01*
X141887363Y-102184200D02*
X141982601Y-102088961D01*
X141982601Y-102088961D02*
X142030220Y-101993723D01*
X142030220Y-101993723D02*
X142077839Y-101803247D01*
X142077839Y-101803247D02*
X142077839Y-101660390D01*
X142077839Y-101660390D02*
X142030220Y-101469914D01*
X142030220Y-101469914D02*
X141982601Y-101374676D01*
X141982601Y-101374676D02*
X141887363Y-101279438D01*
X141887363Y-101279438D02*
X141744506Y-101231819D01*
X141744506Y-101231819D02*
X141649268Y-101231819D01*
X141649268Y-101231819D02*
X141506411Y-101279438D01*
X141506411Y-101279438D02*
X141458792Y-101327057D01*
X138966411Y-97913819D02*
X139537839Y-97913819D01*
X139252125Y-97913819D02*
X139252125Y-96913819D01*
X139252125Y-96913819D02*
X139347363Y-97056676D01*
X139347363Y-97056676D02*
X139442601Y-97151914D01*
X139442601Y-97151914D02*
X139537839Y-97199533D01*
X141950839Y-97009057D02*
X141903220Y-96961438D01*
X141903220Y-96961438D02*
X141807982Y-96913819D01*
X141807982Y-96913819D02*
X141569887Y-96913819D01*
X141569887Y-96913819D02*
X141474649Y-96961438D01*
X141474649Y-96961438D02*
X141427030Y-97009057D01*
X141427030Y-97009057D02*
X141379411Y-97104295D01*
X141379411Y-97104295D02*
X141379411Y-97199533D01*
X141379411Y-97199533D02*
X141427030Y-97342390D01*
X141427030Y-97342390D02*
X141998458Y-97913819D01*
X141998458Y-97913819D02*
X141379411Y-97913819D01*
X144141649Y-97247152D02*
X144141649Y-97913819D01*
X144379744Y-96866200D02*
X144617839Y-97580485D01*
X144617839Y-97580485D02*
X143998792Y-97580485D01*
M02*
